<?xml version="1.0" standalone="no"?>
  <!DOCTYPE svg PUBLIC "-//W3C//DTD SVG 1.1//EN" "http://www.w3.org/Graphics/SVG/1.1/DTD/svg11.dtd" >
  <svg>
  <metadata>
  Created by font-carrier
  </metadata>
  <defs>
  <font id="NeSkidComicaBDID120055769" horiz-adv-x="1865" vert-adv-y="1865" >
    <font-face
      
      font-family="NeSkid (Comica BD) ID120055769"
      
      font-weight="400"
      
      font-stretch="normal"
      
      units-per-em="2048"
      
      ascent="1716"
      
      descent="-418"
      
    />
      <missing-glyph />

      

      
      <glyph glyph-name="uni27" unicode="&#x27;" d="M108 1440Q102 1376 102 1343L102 1090Q147 1077 204 1077Q331 1460 331 1470L325 1470L108 1440Z"  horiz-adv-x="401" vert-adv-y="2048"  />

      
      <glyph glyph-name="uni2d" unicode="&#x2d;" d="M114 504L147 274L540 274L573 504L114 504Z"  horiz-adv-x="675" vert-adv-y="2048"  />

      
      <glyph glyph-name="uniad" unicode="&#xad;" d="M114 504L147 274L540 274L573 504L114 504Z"  horiz-adv-x="675" vert-adv-y="2048"  />

      
      <glyph glyph-name="uni21" unicode="&#x21;" d="M147 1196L237 434L475 434L475 1196L147 1196M221 336L221 131L442 131L442 279L221 336Z"  horiz-adv-x="608" vert-adv-y="2048"  />

      
      <glyph glyph-name="uni22" unicode="&#x22;" d="M508 1278Q410 1102 410 1081L442 1081L500 1073Q594 1184 664 1278L508 1278M262 1262Q262 1249 172 1081L213 1073L295 1073Q295 1087 459 1262L262 1262Z"  horiz-adv-x="718" vert-adv-y="2048"  />

      
      <glyph glyph-name="uni23" unicode="&#x23;" d="M607 815L607 684Q607 668 591 668L517 668Q501 668 501 684L501 815L353 815L353 684Q353 664 190 651Q181 635 165 528L345 553L353 537L353 430Q353 414 337 414L173 414L173 274L329 274L345 266Q280 88 280 70L288 70Q501 70 501 94L501 258Q503 274 517 274L591 274Q607 272 607 258L607 201Q607 160 599 78L624 78Q681 78 804 86L804 258L812 274Q1003 242 1025 242L1025 315L1017 414L820 414Q804 414 804 430L804 545Q806 561 820 561L943 561Q960 635 960 700L951 700Q843 676 820 676Q820 684 812 684Q837 762 837 831Q734 831 607 815M517 561L591 561Q607 559 607 545L607 430Q607 414 591 414L517 414Q501 414 501 430L501 545Q503 561 517 561Z"  horiz-adv-x="1056" vert-adv-y="2048"  />

      
      <glyph glyph-name="uni24" unicode="&#x24;" d="M392 1204L392 1032Q179 920 179 819L179 795Q179 629 327 500Q325 485 163 410L163 377Q163 317 392 279L392 123L474 123L474 262Q474 281 532 287L540 270L540 139Q542 123 556 123L630 123L630 303Q859 428 859 557L859 573Q859 690 646 811Q646 844 786 1032Q650 1061 630 1081L630 1204L540 1204L540 1073Q540 1057 523 1057L474 1057L474 1204L392 1204Z"  horiz-adv-x="884" vert-adv-y="2048"  />

      
      <glyph glyph-name="uni25" unicode="&#x25;" d="M172 664Q190 541 278 541L311 541Q410 606 410 680Q410 803 287 803Q201 803 172 664M180 123L328 123L778 803Q541 772 541 729Q299 332 180 123M565 295Q565 164 696 164Q750 164 803 303Q786 426 713 426L688 426Q592 426 565 295Z"  horiz-adv-x="878" vert-adv-y="2048"  />

      
      <glyph glyph-name="uni26" unicode="&#x26;" d="M384 967L384 909Q384 854 433 778Q163 662 163 451L163 410Q163 217 384 139Q458 123 491 123Q599 123 769 229Q794 193 794 180L1040 180Q941 340 941 369Q1089 526 1089 557Q1009 678 990 721L982 721Q958 618 876 524Q818 641 804 680L818 737Q982 979 779 1188L630 1221Q423 1221 384 967M525 569L562 567Q655 522 648 455L646 418Q618 305 515 309Q425 311 409 446Q444 573 525 569M634 1049L663 1049Q732 1014 732 958L732 928Q716 834 640 834Q571 834 552 944Q573 1049 634 1049Z"  horiz-adv-x="1200" vert-adv-y="2048"  />

      
      <glyph glyph-name="uni28" unicode="&#x28;" d="M55 700L55 651Q55 223 374-233Q401-233 530-160Q374 127 374 471L374 578Q374 854 547 1094Q547 1102 235 1282L227 1282Q55 1077 55 700Z"  horiz-adv-x="665" vert-adv-y="2048"  />

      
      <glyph glyph-name="uni29" unicode="&#x29;" d="M184 1096L184 1087Q356 850 356 571L356 457Q356 123 200-166Q204-166 331-240L340-240Q549-43 659 465Q676 553 676 653L676 662Q676 1077 503 1276L495 1276Q202 1102 184 1096Z"  horiz-adv-x="507" vert-adv-y="2048"  />

      
      <glyph glyph-name="uni2a" unicode="&#x2a;" d="M263 1481Q274 1481 353 1341L337 1333Q183 1391 124 1399L181 1186L222 1194L353 1194L353 1186Q294 1073 263 1047Q374 885 378 866Q394 866 468 1112L476 1112Q497 1112 566 899L755 948Q607 1174 607 1194L616 1194Q767 1137 837 1120L837 1128Q837 1145 779 1341L722 1333L607 1333L607 1341L771 1563L566 1563Q552 1507 484 1415L476 1415Q427 1606 427 1628L419 1628Q265 1493 263 1481Z"  horiz-adv-x="907" vert-adv-y="2048"  />

      
      <glyph glyph-name="uni2c" unicode="&#x2c;" d="M130 137Q155 39 155-43L155-51Q155-137 122-272Q216-297 245-297Q401-82 401 121Q392 135 392 154L392 219Q392 236 376 236Q294 195 130 145L130 137Z"  horiz-adv-x="466" vert-adv-y="2048"  />

      
      <glyph glyph-name="uni2e" unicode="&#x2e;" d="M57 182L57 166Q57 49 213 27L245 27Q401 53 401 174Q401 276 245 305L204 305Q57 279 57 182Z"  horiz-adv-x="448" vert-adv-y="2048"  />

      
      <glyph glyph-name="uni2f" unicode="&#x2f;" d="M773 1378L776 1382Q773 1380 773 1378M534 1513Q419 1083 114 154Q198 129 259 129L741 1448L732 1448Q634 1489 534 1513Z"  horiz-adv-x="776" vert-adv-y="2048"  />

      
      <glyph glyph-name="uni3a" unicode="&#x3a;" d="M81 793Q99 653 261 653Q425 686 425 801Q425 915 245 940Q108 940 81 809L81 793M81 293L81 276Q81 162 237 137L269 137Q425 164 425 285Q425 387 278 416L228 416Q81 389 81 293Z"  horiz-adv-x="534" vert-adv-y="2048"  />

      
      <glyph glyph-name="uni3b" unicode="&#x3b;" d="M86 854L86 813Q113 690 266 690Q422 725 422 813L422 854Q422 956 250 977Q86 950 86 854M143 371Q168 260 168 190Q143 18 143-31Q219-55 258-55Q405 162 405 346L405 387L397 485Q289 428 143 387L143 371Z"  horiz-adv-x="479" vert-adv-y="2048"  />

      
      <glyph glyph-name="uni037E" unicode="&#x037E;" d="M86 854L86 813Q113 690 266 690Q422 725 422 813L422 854Q422 956 250 977Q86 950 86 854M143 371Q168 260 168 190Q143 18 143-31Q219-55 258-55Q405 162 405 346L405 387L397 485Q289 428 143 387L143 371Z"  horiz-adv-x="479" vert-adv-y="2048"  />

      
      <glyph glyph-name="uni3f" unicode="&#x3f;" d="M221 1247L194 717Q561 899 583 899L595 899Q716 874 716 778L716 758Q716 694 454 410Q362 291 362 215Q362 170 389 86Q470 125 663 154Q643 186 643 227Q643 285 966 604Q1079 743 1079 879L1079 885Q1079 1300 516 1300Q333 1300 221 1247M307-182Q348-371 548-371Q704-371 772-221L778-176Q741 12 563 12L530 12Q307-14 307-176L307-182Z"  horiz-adv-x="1224" vert-adv-y="2048"  />

      
      <glyph glyph-name="uni40" unicode="&#x40;" d="M100 686Q100 221 583 74Q655 61 716 61L784 61L823 68L823 209L739 209Q417 209 297 545Q280 616 280 668L280 735Q280 971 571 1141Q669 1174 729 1174L790 1174Q995 1174 1138 971Q1200 866 1200 735Q1181 461 1077 461L1071 461Q993 461 993 709Q993 983 800 1051Q774 1061 706 1067Q661 1063 661 1055Q583 870 571 838L577 838Q587 842 594 842Q729 819 729 713Q723 713 723 709Q700 719 661 719Q512 719 448 551L448 489Q448 326 649 297Q712 297 790 365L796 365Q868 297 993 297Q1243 297 1335 512Q1368 625 1368 713L1368 786Q1368 1147 964 1309Q850 1337 762 1337Q303 1337 129 903Q100 791 100 686M653 600L680 600Q745 569 745 520L745 494Q729 412 657 412Q594 412 577 508Q596 600 653 600Z"  horiz-adv-x="1492" vert-adv-y="2048"  />

      
      <glyph glyph-name="uni5b" unicode="&#x5b;" d="M226 1147Q177-285 169-369L759-369Q751-287 751-246L751-205L521-205Q505-205 505-188L505 967Q507 983 521 983L734 983Q726 1094 726 1147L226 1147Z"  horiz-adv-x="817" vert-adv-y="2048"  />

      
      <glyph glyph-name="uni5c" unicode="&#x5c;" d="M774-12Q774-14 776-16L774-12M172 1425L696 98Q772 123 844 139Q565 926 393 1499L385 1499Q174 1432 172 1425Z"  horiz-adv-x="800" vert-adv-y="2048"  />

      
      <glyph glyph-name="uni5d" unicode="&#x5d;" d="M169 1108Q177 1012 177 969L177 944L407 944Q423 942 423 928L423-227Q423-244 407-244L194-244Q202-365 202-408L701-408Q742 836 759 1108L169 1108Z"  horiz-adv-x="841" vert-adv-y="2048"  />

      
      <glyph glyph-name="uni5e" unicode="&#x5e;" d="M145 999Q143 999 143 997L143 999L145 999M417 518Q417 496 159 248Q172 248 264 178Q399 291 411 338L426 338Q532 213 577 178Q653 223 682 254Q612 303 417 518Z"  horiz-adv-x="776" vert-adv-y="2048"  />

      
      <glyph glyph-name="uni5f" unicode="&#x5f;" d="M126-168L126-348L1295-348L1295-168L126-168Z"  horiz-adv-x="1353" vert-adv-y="2048"  />

      
      <glyph glyph-name="uni60" unicode="&#x60;" d="M47 971Q59 963 307 715L311 723Q340 760 416 825Q250 1143 209 1167Q55 987 47 971Z"  horiz-adv-x="546" vert-adv-y="2048"  />

      
      <glyph glyph-name="uni7b" unicode="&#x7b;" d="M169 662L153 662L153 440L194 440Q309 440 309 129Q364-158 432-158Q499-231 669-231L718-231Q735-231 735-215L735 72L677 63L669 63Q579 63 579 334Q579 432 448 539L432 539L432 563Q573 594 595 940Q595 1047 669 1047L677 1047L735 1038L735 1333L669 1333Q413 1333 341 1137Q311 999 284 727Q237 662 169 662Z"  horiz-adv-x="862" vert-adv-y="2048"  />

      
      <glyph glyph-name="uni7c" unicode="&#x7c;" d="M198 1212L206 1180Q206 950 239-344L403-344Q436 965 436 1212L198 1212Z"  horiz-adv-x="514" vert-adv-y="2048"  />

      
      <glyph glyph-name="uni7d" unicode="&#x7d;" d="M184 1145L184 850L200 858L274 858Q329 858 348 555Q372 442 487 367L487 358Q356 285 356 186Q317-100 290-100Q290-117 241-125Q225-125 184-109L184-412Q231-412 241-420Q458-420 544-281Q626-109 626 170Q659 260 757 260L766 260L766 473Q610 473 610 743Q610 1092 340 1145L184 1145Z"  horiz-adv-x="876" vert-adv-y="2048"  />

      
      <glyph glyph-name="uni7e" unicode="&#x7e;" d="M135 573Q250 492 266 492Q307 549 356 549Q581 492 708 475Q815 475 913 614L782 705Q756 639 700 639Q407 713 340 713Q227 713 135 573Z"  horiz-adv-x="993" vert-adv-y="2048"  />

      
      <glyph glyph-name="unia6" unicode="&#xa6;" d="M116 1288L112 1208L112 1116Q112 1071 108 973L235 938L235 946Q239 1174 239 1300L239 1307Q165 1288 116 1288M102 629L102 326Q200 293 221 293L227 307L227 319Q227 424 231 662Q102 639 102 629Z"  horiz-adv-x="339" vert-adv-y="2048"  />

      
      <glyph glyph-name="uni2b" unicode="&#x2b;" d="M329 809L329 604Q329 588 313 588L100 588Q133 442 133 408L321 408Q338 406 338 391L338 367Q338 309 346 186L510 186Q518 309 518 367L518 391Q520 408 534 408L731 408Q731 442 764 588L542 588Q526 588 526 604L526 809L329 809Z"  horiz-adv-x="860" vert-adv-y="2048"  />

      
      <glyph glyph-name="uni3c" unicode="&#x3c;" d="M137 391L137 215Q153 190 833-180L833 113Q833 129 481 209L481 223Q833 479 833 487L790 971Q303 551 137 391Z"  horiz-adv-x="958" vert-adv-y="2048"  />

      
      <glyph glyph-name="uni3d" unicode="&#x3d;" d="M290 866L290 686L1077 686L1077 866L290 866M280 385L280 205L1066 205L1066 385L280 385Z"  horiz-adv-x="1290" vert-adv-y="2048"  />

      
      <glyph glyph-name="uni3e" unicode="&#x3e;" d="M235 956L235 641L602 551L602 543L235 272L280-221L286-221Q751 182 954 371L954 543Q946 563 235 956Z"  horiz-adv-x="1042" vert-adv-y="2048"  />

      
      <glyph glyph-name="uniab" unicode="&#xab;" d="M3 412L3 251Q18 229 638-109L638 158Q638 173 317 246L317 259Q638 492 638 500L599 941Q154 558 3 412M675 381L675 219Q690 197 1315-144L1315 125Q1315 140 991 214L991 227Q1315 462 1315 470L1276 914Q828 528 675 381Z"  horiz-adv-x="1414" vert-adv-y="2048"  />

      
      <glyph glyph-name="unibb" unicode="&#xbb;" d="M1295 440Q1150 586 723 969L686 528Q686 520 994 287L994 274Q686 201 686 186L686-81Q1280 257 1295 279L1295 440M650 409Q504 556 74 942L36 498Q36 490 347 255L347 242Q36 168 36 153L36-116Q636 225 650 247L650 409Z"  horiz-adv-x="1365" vert-adv-y="2048"  />

      
      <glyph glyph-name="uni30" unicode="&#x30;" d="M16 680L16 590Q16 181 442 25Q532-8 655-8L721-8Q1157-8 1319 402Q1351 492 1351 615L1351 639Q1351 1084 909 1311Q815 1344 688 1352Q196 1352 24 795Q16 725 16 680M634 951L688 951Q819 875 819 756L819 691Q788 486 645 486Q518 486 483 723Q520 951 634 951Z"  horiz-adv-x="1396" vert-adv-y="2048"  />

      
      <glyph glyph-name="uni31" unicode="&#x31;" d="M18 1065L18 1057Q18 1026 116 737Q436 828 485 828L485 819Q337 160 337 8L337 0L419 8L845 8L960 1319Q755 1385 723 1385L18 1065Z"  horiz-adv-x="980" vert-adv-y="2048"  />

      
      <glyph glyph-name="uni32" unicode="&#x32;" d="M9 1153L173 744L181 744Q419 908 574 908L607 908Q714 899 714 801Q714 719 337 473Q181 365 181 244Q173 78 173 15Q165 15 165 7Q384-2 509-2L902-2Q1004-2 1156-10Q1162-2 1230-2L1221 56L1221 375L1213 375L681 334L681 367Q1123 693 1123 834Q1142 834 1148 981Q1148 1217 853 1309Q720 1350 599 1350L558 1350Q275 1350 9 1162L9 1153Z"  horiz-adv-x="1275" vert-adv-y="2048"  />

      
      <glyph glyph-name="uni33" unicode="&#x33;" d="M50 1374L41 1341Q33 1105 33 1038L25 1005Q375 1095 508 1095L566 1095Q646 1095 680 1038L680 1013Q680 886 238 726Q222 669 213 571Q365 595 385 595Q480 595 525 530L525 481Q525 401 74 341Q74 298 33 46Q222 5 361 5L467 5Q879 5 934 251L934 300Q934 450 754 677Q1049 806 1049 915Q1074 923 1082 1095L1082 1234Q1082 1306 1049 1365Q603 1374 336 1374L50 1374Z"  horiz-adv-x="1116" vert-adv-y="2048"  />

      
      <glyph glyph-name="uni34" unicode="&#x34;" d="M203 1090Q203 1096 205 1100Q203 1096 203 1090M852 1373Q774 676 753 676L712 676Q643 676 491 668L483 685L606 1119L180 1250L180 1242L-25 250L-17 250Q632 341 655 349Q655 341 663 341Q622 111 622 13L843 13Q913 13 1065 5Q1073 261 1073 332Q1089 341 1097 341Q1194 332 1237 316Q1245 332 1245 341L1245 554Q1118 566 1073 578L1187 1389L852 1373Z"  horiz-adv-x="1267" vert-adv-y="2048"  />

      
      <glyph glyph-name="uni35" unicode="&#x35;" d="M199 1203L-6 458L2 458Q250 523 381 523Q619 503 619 384Q627 384 627 351L627 327Q596 179 356 179L279 179Q209 179 74 220Q117 15 129 15Q250-1 365-1L412-1Q739-1 1020 163Q1147 271 1147 409L1147 466Q1147 671 823 703L768 703Q674 703 475 679L467 695Q522 855 539 875Q973 892 1053 892L1155 1269L1147 1269Q567 1220 199 1203Z"  horiz-adv-x="1185" vert-adv-y="2048"  />

      
      <glyph glyph-name="uni36" unicode="&#x36;" d="M21 505Q21 168 365 30Q441 6 537 6L545 6Q965 6 1111 301L1119 383Q1119 678 783 800L717 800Q613 800 472 710L447 710L447 727Q447 872 611 1038L922 1226L635 1349Q465 1294 250 1079Q21 825 21 505M644 520L652 520Q791 495 791 405Q791 321 635 290Q488 331 488 372L488 438Q523 520 644 520Z"  horiz-adv-x="1163" vert-adv-y="2048"  />

      
      <glyph glyph-name="uni37" unicode="&#x37;" d="M0 1349Q8 1333 8 1324Q16 952 16 898L459 939Q172 298 172 112L688-3Q717 358 1139 1300Q1090 1345 1090 1365Q741 1365 0 1349Z"  horiz-adv-x="1175" vert-adv-y="2048"  />

      
      <glyph glyph-name="uni38" unicode="&#x38;" d="M182 1071L182 997Q182 899 240 776Q2 625 2 416L2 375Q2 88 428 6L600 6Q944 6 1067 285Q1083 354 1083 408Q1083 606 829 784L829 793Q887 897 887 1038Q887 1319 633 1456Q600 1473 543 1473Q235 1473 182 1071M502 1227Q584 1208 584 1079Q584 993 518 948L494 948Q416 948 403 1063L403 1112Q414 1227 502 1227M510 662Q657 627 657 514L657 498Q623 358 518 358L510 358Q381 358 362 522Q362 627 510 662Z"  horiz-adv-x="1122" vert-adv-y="2048"  />

      
      <glyph glyph-name="uni39" unicode="&#x39;" d="M34 1052Q34 802 263 634Q345 601 419 601Q478 601 632 642L632 634Q632 501 370 323Q108 249-7 224L-7 216Q13 210 263 3Q611 73 812 241Q1156 548 1156 863L1156 896Q1156 1285 755 1412Q652 1445 534 1445L501 1445Q169 1445 59 1207Q34 1103 34 1052M452 1109Q632 1074 632 978L632 953Q632 878 501 847Q321 878 321 978L321 1011Q321 1091 452 1109Z"  horiz-adv-x="1208" vert-adv-y="2048"  />

      
      <glyph glyph-name="uni61" unicode="&#x61;" d="M135 1468Q-53 608 19 63L27 61Q162 63 385 27Q439 6 473 0Q434 281 432 416Q529 442 721 432Q738 356 785-72Q1282 76 1295 74Q1110 758 770 1452Q758 1454 688 1575Q260 1442 135 1468M391 1182L400 1180Q586 948 678 700L676 684Q486 696 391 651Q365 657 367 922Q365 1030 391 1182Z"  horiz-adv-x="1308" vert-adv-y="2048"  />

      
      <glyph glyph-name="uni41" unicode="&#x41;" d="M135 1468Q-53 608 19 63L27 61Q162 63 385 27Q439 6 473 0Q434 281 432 416Q529 442 721 432Q738 356 785-72Q1282 76 1295 74Q1110 758 770 1452Q758 1454 688 1575Q260 1442 135 1468M391 1182L400 1180Q586 948 678 700L676 684Q486 696 391 651Q365 657 367 922Q365 1030 391 1182Z"  horiz-adv-x="1308" vert-adv-y="2048"  />

      
      <glyph glyph-name="uni62" unicode="&#x62;" d="M-52 1495Q128 1132 104 0L186 0Q716-13 1068 290Q1179 438 1181 575L1181 616Q1187 876 1001 972Q976 972 976 989Q1068 1077 1072 1249Q1078 1484 851 1566Q765 1591 679 1593L605 1595Q382 1601-52 1495M648 1292Q730 1290 761 1230L761 1189Q757 1081 462 1009Q437 1081 425 1263Q526 1294 648 1292M669 798L710 798Q833 782 831 698L831 665Q827 526 505 434Q491 471 464 763Q538 802 669 798Z"  horiz-adv-x="1228" vert-adv-y="2048"  />

      
      <glyph glyph-name="uni42" unicode="&#x42;" d="M-52 1495Q128 1132 104 0L186 0Q716-13 1068 290Q1179 438 1181 575L1181 616Q1187 876 1001 972Q976 972 976 989Q1068 1077 1072 1249Q1078 1484 851 1566Q765 1591 679 1593L605 1595Q382 1601-52 1495M648 1292Q730 1290 761 1230L761 1189Q757 1081 462 1009Q437 1081 425 1263Q526 1294 648 1292M669 798L710 798Q833 782 831 698L831 665Q827 526 505 434Q491 471 464 763Q538 802 669 798Z"  horiz-adv-x="1228" vert-adv-y="2048"  />

      
      <glyph glyph-name="uni63" unicode="&#x63;" d="M7 697Q61 265 431 56Q589-15 761 5L786 9Q902 22 960 54L945 110Q921 308 970 525L962 525L636 419Q474 400 384 529Q353 577 333 663Q300 947 544 1109Q575 1130 632 1138Q700 1144 781 1121L781 1130Q767 1240 908 1500Q732 1529 579 1510L562 1508Q81 1449 7 904Q-7 824 7 697Z"  horiz-adv-x="1009" vert-adv-y="2048"  />

      
      <glyph glyph-name="uni43" unicode="&#x43;" d="M7 697Q61 265 431 56Q589-15 761 5L786 9Q902 22 960 54L945 110Q921 308 970 525L962 525L636 419Q474 400 384 529Q353 577 333 663Q300 947 544 1109Q575 1130 632 1138Q700 1144 781 1121L781 1130Q767 1240 908 1500Q732 1529 579 1510L562 1508Q81 1449 7 904Q-7 824 7 697Z"  horiz-adv-x="1009" vert-adv-y="2048"  />

      
      <glyph glyph-name="uni64" unicode="&#x64;" d="M-53 1554Q103 250 103 14L119 6Q402-10 447-10Q977-10 1217 579Q1250 692 1250 784L1250 850Q1250 1325 676 1530Q479 1587 250 1587Q-53 1579-53 1554M459 1184Q688 1184 778 831Q787 803 787 741Q787 561 639 487Q582 471 541 471L508 471Q434 471 434 553Q434 602 377 1159Q398 1175 459 1184Z"  horiz-adv-x="1308" vert-adv-y="2048"  />

      
      <glyph glyph-name="uni44" unicode="&#x44;" d="M-53 1554Q103 250 103 14L119 6Q402-10 447-10Q977-10 1217 579Q1250 692 1250 784L1250 850Q1250 1325 676 1530Q479 1587 250 1587Q-53 1579-53 1554M459 1184Q688 1184 778 831Q787 803 787 741Q787 561 639 487Q582 471 541 471L508 471Q434 471 434 553Q434 602 377 1159Q398 1175 459 1184Z"  horiz-adv-x="1308" vert-adv-y="2048"  />

      
      <glyph glyph-name="uni65" unicode="&#x65;" d="M-40 1220Q54 860 114 514Q169 198 155-3Q804 18 1017 55Q992 198 925 487Q767 436 482 362L427 536L441 546L474 552Q574 569 712 626Q699 647 626 927Q562 890 400 837L388 854L384 884Q361 960 351 1021Q363 1032 382 1034L488 1052Q566 1067 789 1087L781 1128Q761 1247 734 1452L646 1437Q333 1384-40 1220Z"  horiz-adv-x="1052" vert-adv-y="2048"  />

      
      <glyph glyph-name="uni45" unicode="&#x45;" d="M-40 1220Q54 860 114 514Q169 198 155-3Q804 18 1017 55Q992 198 925 487Q767 436 482 362L427 536L441 546L474 552Q574 569 712 626Q699 647 626 927Q562 890 400 837L388 854L384 884Q361 960 351 1021Q363 1032 382 1034L488 1052Q566 1067 789 1087L781 1128Q761 1247 734 1452L646 1437Q333 1384-40 1220Z"  horiz-adv-x="1052" vert-adv-y="2048"  />

      
      <glyph glyph-name="uni66" unicode="&#x66;" d="M15 1483Q-28 713 56 187L76 58Q128 21 482 6L447 234Q429 352 404 557L418 570Q728 568 775 576Q814 695 775 940Q603 930 410 932L408 940Q396 1153 416 1157Q734 1176 1074 1145L1072 1153Q1064 1207 1062 1583Q885 1622 15 1483Z"  horiz-adv-x="1103" vert-adv-y="2048"  />

      
      <glyph glyph-name="uni46" unicode="&#x46;" d="M15 1483Q-28 713 56 187L76 58Q128 21 482 6L447 234Q429 352 404 557L418 570Q728 568 775 576Q814 695 775 940Q603 930 410 932L408 940Q396 1153 416 1157Q734 1176 1074 1145L1072 1153Q1064 1207 1062 1583Q885 1622 15 1483Z"  horiz-adv-x="1103" vert-adv-y="2048"  />

      
      <glyph glyph-name="uni67" unicode="&#x67;" d="M1115 334Q1117 336 1119 340L1115 334M-12 731Q43 183 469 31Q537 4 695 2Q1119 45 1293 539Q1332 713 1313 912L1313 920Q793 852 695 842L697 809Q707 709 693 613Q734 633 803 647Q901 658 906 617Q842 428 678 414Q498 396 385 631Q365 674 361 719Q330 1032 521 1098L537 1098Q586 1104 697 1073L846 1483L838 1483Q703 1526 570 1514L553 1512Q86 1467-12 914Q-14 764-12 731Z"  horiz-adv-x="1361" vert-adv-y="2048"  />

      
      <glyph glyph-name="uni47" unicode="&#x47;" d="M1115 334Q1117 336 1119 340L1115 334M-12 731Q43 183 469 31Q537 4 695 2Q1119 45 1293 539Q1332 713 1313 912L1313 920Q793 852 695 842L697 809Q707 709 693 613Q734 633 803 647Q901 658 906 617Q842 428 678 414Q498 396 385 631Q365 674 361 719Q330 1032 521 1098L537 1098Q586 1104 697 1073L846 1483L838 1483Q703 1526 570 1514L553 1512Q86 1467-12 914Q-14 764-12 731Z"  horiz-adv-x="1361" vert-adv-y="2048"  />

      
      <glyph glyph-name="uni68" unicode="&#x68;" d="M173 1395Q-24 518-24-6L336-23L336-14Q375 453 402 453L476 453Q582 453 623 436Q615 416 574-6L590 2Q816 10 943 10L1016 2Q1123 834 1156 1313L1147 1313Q1020 1313 746 1305Q689 872 689 821L681 821Q459 831 459 862L533 1329Q271 1395 173 1395Z"  horiz-adv-x="1179" vert-adv-y="2048"  />

      
      <glyph glyph-name="uni48" unicode="&#x48;" d="M173 1395Q-24 518-24-6L336-23L336-14Q375 453 402 453L476 453Q582 453 623 436Q615 416 574-6L590 2Q816 10 943 10L1016 2Q1123 834 1156 1313L1147 1313Q1020 1313 746 1305Q689 872 689 821L681 821Q459 831 459 862L533 1329Q271 1395 173 1395Z"  horiz-adv-x="1179" vert-adv-y="2048"  />

      
      <glyph glyph-name="uni69" unicode="&#x69;" d="M6 1274Q106 348 186 43Q211-12 211-18L541 51Q471 987 498 1343L6 1274Z"  horiz-adv-x="575" vert-adv-y="2048"  />

      
      <glyph glyph-name="uni49" unicode="&#x49;" d="M6 1274Q106 348 186 43Q211-12 211-18L541 51Q471 987 498 1343L6 1274Z"  horiz-adv-x="575" vert-adv-y="2048"  />

      
      <glyph glyph-name="uni6a" unicode="&#x6a;" d="M465 1564L203 1573L203 1278Q203 1265 228 1253L580 1253Q613 1253 621 1007L621 876Q600 483 441 483Q308 483 244 753L236 753Q164 729-59 532Q-2 270 179 106Q338 0 482 0L531 0Q815 0 957 688Q1006 991 1006 1294L1006 1597Q732 1564 465 1564Z"  horiz-adv-x="1052" vert-adv-y="2048"  />

      
      <glyph glyph-name="uni4a" unicode="&#x4a;" d="M465 1564L203 1573L203 1278Q203 1265 228 1253L580 1253Q613 1253 621 1007L621 876Q600 483 441 483Q308 483 244 753L236 753Q164 729-59 532Q-2 270 179 106Q338 0 482 0L531 0Q815 0 957 688Q1006 991 1006 1294L1006 1597Q732 1564 465 1564Z"  horiz-adv-x="1052" vert-adv-y="2048"  />

      
      <glyph glyph-name="uni6b" unicode="&#x6b;" d="M748 1358Q656 1245 496 1016L480 1006L472 1006Q486 1212 502 1335L13 1309Q19 1049 25 924L54 440Q68 162 111 0L445 45L439 143Q433 268 429 485L437 487Q793 96 812 98Q1281 272 1301 272Q1279 301 654 713L644 729Q1211 1311 1217 1327Q1184 1325 748 1358Z"  horiz-adv-x="1333" vert-adv-y="2048"  />

      
      <glyph glyph-name="uni4b" unicode="&#x4b;" d="M748 1358Q656 1245 496 1016L480 1006L472 1006Q486 1212 502 1335L13 1309Q19 1049 25 924L54 440Q68 162 111 0L445 45L439 143Q433 268 429 485L437 487Q793 96 812 98Q1281 272 1301 272Q1279 301 654 713L644 729Q1211 1311 1217 1327Q1184 1325 748 1358Z"  horiz-adv-x="1333" vert-adv-y="2048"  />

      
      <glyph glyph-name="uni6c" unicode="&#x6c;" d="M118 1416Q12 683 12 212L12 138Q12 7 37 7Q86 7 463-9Q723-9 938 56Q913 271 913 401L913 573Q575 433 413 433Q413 441 405 441Q528 1130 610 1359L118 1416Z"  horiz-adv-x="1011" vert-adv-y="2048"  />

      
      <glyph glyph-name="uni4c" unicode="&#x4c;" d="M118 1416Q12 683 12 212L12 138Q12 7 37 7Q86 7 463-9Q723-9 938 56Q913 271 913 401L913 573Q575 433 413 433Q413 441 405 441Q528 1130 610 1359L118 1416Z"  horiz-adv-x="1011" vert-adv-y="2048"  />

      
      <glyph glyph-name="uni6d" unicode="&#x6d;" d="M138 1071Q138 1069 140 1065Q138 1067 138 1071M330 1155Q330 1157 329 1158Q328 1159 328 1161L326 1163L330 1155M-2 1074Q31 199 80 33Q416 66 416 82Q383 519 383 599Q391 613 391 631L408 631Q547 220 596 1L604 1Q791 17 956 41Q973 457 973 492L989 500L997 500Q1176-4 1194-8Q1382 60 1554 173Q1489 603 1104 1237Q797 1213 678 1197Q686 1045 686 975L686 656L670 656Q670 709 432 1303Q-2 1096-2 1082L-2 1074Z"  horiz-adv-x="1589" vert-adv-y="2048"  />

      
      <glyph glyph-name="uni4d" unicode="&#x4d;" d="M138 1071Q138 1069 140 1065Q138 1067 138 1071M330 1155Q330 1157 329 1158Q328 1159 328 1161L326 1163L330 1155M-2 1074Q31 199 80 33Q416 66 416 82Q383 519 383 599Q391 613 391 631L408 631Q547 220 596 1L604 1Q791 17 956 41Q973 457 973 492L989 500L997 500Q1176-4 1194-8Q1382 60 1554 173Q1489 603 1104 1237Q797 1213 678 1197Q686 1045 686 975L686 656L670 656Q670 709 432 1303Q-2 1096-2 1082L-2 1074Z"  horiz-adv-x="1589" vert-adv-y="2048"  />

      
      <glyph glyph-name="uni6e" unicode="&#x6e;" d="M-29 1075Q61 405 159 34Q196 34 495 67Q413 509 413 616L413 624L430 624Q641 151 676-7L1085 34Q1101 340 1101 698L1101 927Q1095 1230 1061 1230Q995 1230 643 1198L643 1189Q692 841 708 649L692 649Q555 981 389 1296L372 1296Q-4 1103-29 1075Z"  horiz-adv-x="1163" vert-adv-y="2048"  />

      
      <glyph glyph-name="uni4e" unicode="&#x4e;" d="M-29 1075Q61 405 159 34Q196 34 495 67Q413 509 413 616L413 624L430 624Q641 151 676-7L1085 34Q1101 340 1101 698L1101 927Q1095 1230 1061 1230Q995 1230 643 1198L643 1189Q692 841 708 649L692 649Q555 981 389 1296L372 1296Q-4 1103-29 1075Z"  horiz-adv-x="1163" vert-adv-y="2048"  />

      
      <glyph glyph-name="uni6f" unicode="&#x6f;" d="M1 725Q1 360 361 92Q515-2 697-2L738-2Q1095-2 1295 369Q1336 483 1336 580L1336 614Q1336 999 992 1241Q837 1321 706 1321L632 1321Q286 1321 58 979Q1 840 1 725M599 936Q765 936 886 676L894 600Q894 442 665 399L648 399Q452 399 419 676L419 727Q443 936 599 936Z"  horiz-adv-x="1419" vert-adv-y="2048"  />

      
      <glyph glyph-name="uni4f" unicode="&#x4f;" d="M1 725Q1 360 361 92Q515-2 697-2L738-2Q1095-2 1295 369Q1336 483 1336 580L1336 614Q1336 999 992 1241Q837 1321 706 1321L632 1321Q286 1321 58 979Q1 840 1 725M599 936Q765 936 886 676L894 600Q894 442 665 399L648 399Q452 399 419 676L419 727Q443 936 599 936Z"  horiz-adv-x="1419" vert-adv-y="2048"  />

      
      <glyph glyph-name="uni70" unicode="&#x70;" d="M-12 1326Q54 646 54 351L54 187Q54 144 45 48Q332 23 488-9Q447 351 447 507Q463 515 471 515Q506 515 537 507Q969 507 1110 843Q1143 972 1143 1047Q1143 1381 693 1441Q693 1449 602 1449L520 1449Q236 1449-12 1326M512 1129Q725 1109 725 990L725 982Q725 822 488 785L455 785Q439 785 439 810Q439 884 414 1113Q428 1121 512 1129Z"  horiz-adv-x="1173" vert-adv-y="2048"  />

      
      <glyph glyph-name="uni50" unicode="&#x50;" d="M-12 1326Q54 646 54 351L54 187Q54 144 45 48Q332 23 488-9Q447 351 447 507Q463 515 471 515Q506 515 537 507Q969 507 1110 843Q1143 972 1143 1047Q1143 1381 693 1441Q693 1449 602 1449L520 1449Q236 1449-12 1326M512 1129Q725 1109 725 990L725 982Q725 822 488 785L455 785Q439 785 439 810Q439 884 414 1113Q428 1121 512 1129Z"  horiz-adv-x="1173" vert-adv-y="2048"  />

      
      <glyph glyph-name="uni71" unicode="&#x71;" d="M-6 818Q-6 435 338 114Q526-1 674-1L707-1Q789-1 920 32Q1139-122 1198-132Q1346-34 1460 146Q1342 212 1206 245L1198 261Q1329 423 1329 646L1329 720Q1329 1115 993 1400Q823 1490 699 1490L625 1490Q281 1490 51 1105Q-6 935-6 818M600 1031Q762 1031 879 744Q887 701 887 662Q887 478 641 441Q504 441 436 613Q412 673 412 777L412 785Q412 961 543 1023L600 1031Z"  horiz-adv-x="1501" vert-adv-y="2048"  />

      
      <glyph glyph-name="uni51" unicode="&#x51;" d="M-6 818Q-6 435 338 114Q526-1 674-1L707-1Q789-1 920 32Q1139-122 1198-132Q1346-34 1460 146Q1342 212 1206 245L1198 261Q1329 423 1329 646L1329 720Q1329 1115 993 1400Q823 1490 699 1490L625 1490Q281 1490 51 1105Q-6 935-6 818M600 1031Q762 1031 879 744Q887 701 887 662Q887 478 641 441Q504 441 436 613Q412 673 412 777L412 785Q412 961 543 1023L600 1031Z"  horiz-adv-x="1501" vert-adv-y="2048"  />

      
      <glyph glyph-name="uni72" unicode="&#x72;" d="M12 1360Q86 590 86 320Q78 146 69 74Q379 49 512 17Q479 340 471 533L487 541L602 541Q626 541 741-8Q880 33 1175 74L1175 82Q1171 205 1028 541L970 631L970 647Q1167 799 1167 1073Q1167 1342 864 1442Q747 1475 635 1475L536 1475Q295 1475 12 1360M536 1155Q723 1155 749 1024L749 1008Q710 811 512 811L487 811Q465 811 438 1139Q446 1147 536 1155Z"  horiz-adv-x="1222" vert-adv-y="2048"  />

      
      <glyph glyph-name="uni52" unicode="&#x52;" d="M12 1360Q86 590 86 320Q78 146 69 74Q379 49 512 17Q479 340 471 533L487 541L602 541Q626 541 741-8Q880 33 1175 74L1175 82Q1171 205 1028 541L970 631L970 647Q1167 799 1167 1073Q1167 1342 864 1442Q747 1475 635 1475L536 1475Q295 1475 12 1360M536 1155Q723 1155 749 1024L749 1008Q710 811 512 811L487 811Q465 811 438 1139Q446 1147 536 1155Z"  horiz-adv-x="1222" vert-adv-y="2048"  />

      
      <glyph glyph-name="uni73" unicode="&#x73;" d="M-6 1288Q-51 960 244 801Q553 709 539 596Q559 594 549 496L547 479Q533 362 383 360L342 367Q273 375 107 463Q123 395 113 321L86 111Q330 29 453 12L518 4Q805-35 946 238Q971 311 977 356L989 438Q1034 786 674 942Q453 1008 471 1159L473 1175Q486 1268 658 1257Q725 1249 903 1175L905 1184Q869 1350 885 1477Q631 1534 498 1552Q35 1612-6 1288Z"  horiz-adv-x="1050" vert-adv-y="2048"  />

      
      <glyph glyph-name="uni53" unicode="&#x53;" d="M-6 1288Q-51 960 244 801Q553 709 539 596Q559 594 549 496L547 479Q533 362 383 360L342 367Q273 375 107 463Q123 395 113 321L86 111Q330 29 453 12L518 4Q805-35 946 238Q971 311 977 356L989 438Q1034 786 674 942Q453 1008 471 1159L473 1175Q486 1268 658 1257Q725 1249 903 1175L905 1184Q869 1350 885 1477Q631 1534 498 1552Q35 1612-6 1288Z"  horiz-adv-x="1050" vert-adv-y="2048"  />

      
      <glyph glyph-name="uni74" unicode="&#x74;" d="M9 1076L9 969Q197 1018 337 1018Q394 650 394 76L394-38Q439-47 460-47Q771-30 771-6Q754 764 754 1035L754 1051L763 1067Q869 1051 1049 1051L1213 1051Q1172 1317 1156 1543Q978 1543 58 1436Q9 1309 9 1076Z"  horiz-adv-x="1268" vert-adv-y="2048"  />

      
      <glyph glyph-name="uni54" unicode="&#x54;" d="M9 1076L9 969Q197 1018 337 1018Q394 650 394 76L394-38Q439-47 460-47Q771-30 771-6Q754 764 754 1035L754 1051L763 1067Q869 1051 1049 1051L1213 1051Q1172 1317 1156 1543Q978 1543 58 1436Q9 1309 9 1076Z"  horiz-adv-x="1268" vert-adv-y="2048"  />

      
      <glyph glyph-name="uni75" unicode="&#x75;" d="M732 1486Q904 1032 904 814L904 733Q904 548 757 462Q683 452 667 446Q372 446 372 962Q388 1302 413 1437Q237 1429 151 1429L-5 1429L-5 1380Q-5 427 257 167Q456-29 667-29Q1072-29 1281 438Q1314 558 1314 618Q1314 1079 1166 1601Q982 1535 732 1486Z"  horiz-adv-x="1384" vert-adv-y="2048"  />

      
      <glyph glyph-name="uni55" unicode="&#x55;" d="M732 1486Q904 1032 904 814L904 733Q904 548 757 462Q683 452 667 446Q372 446 372 962Q388 1302 413 1437Q237 1429 151 1429L-5 1429L-5 1380Q-5 427 257 167Q456-29 667-29Q1072-29 1281 438Q1314 558 1314 618Q1314 1079 1166 1601Q982 1535 732 1486Z"  horiz-adv-x="1384" vert-adv-y="2048"  />

      
      <glyph glyph-name="uni76" unicode="&#x76;" d="M617 1487L617 1446Q617 1274 625 1134Q625 815 535 446L518 446Q363 1128 363 1380Q101 1272-14 1265Q-14 915 322-4L420 4L486 4Q615 4 797-29Q957 268 1051 1405Q1059 1405 1059 1413Q1043 1421 617 1487Z"  horiz-adv-x="1081" vert-adv-y="2048"  />

      
      <glyph glyph-name="uni56" unicode="&#x56;" d="M617 1487L617 1446Q617 1274 625 1134Q625 815 535 446L518 446Q363 1128 363 1380Q101 1272-14 1265Q-14 915 322-4L420 4L486 4Q615 4 797-29Q957 268 1051 1405Q1059 1405 1059 1413Q1043 1421 617 1487Z"  horiz-adv-x="1081" vert-adv-y="2048"  />

      
      <glyph glyph-name="uni77" unicode="&#x77;" d="M889 793Q887 797 887 805L887 807Q889 803 889 793M678 1299L620 1307L620 1119Q620 810 514 431L497 431Q342 1123 342 1365L334 1365Q153 1283-35 1250Q-35 906 301-20Q430-3 448-3Q622-12 776-44Q850 113 915 333L932 333Q964 206 1038 29L1136 38L1194 38Q1313 38 1513 5Q1726 552 1726 775Q1759 906 1792 1283L1358 1348Q1358 814 1243 472L1227 472Q1071 1232 1071 1414Q815 1299 678 1299Z"  horiz-adv-x="1865" vert-adv-y="2048"  />

      
      <glyph glyph-name="uni57" unicode="&#x57;" d="M889 793Q887 797 887 805L887 807Q889 803 889 793M678 1299L620 1307L620 1119Q620 810 514 431L497 431Q342 1123 342 1365L334 1365Q153 1283-35 1250Q-35 906 301-20Q430-3 448-3Q622-12 776-44Q850 113 915 333L932 333Q964 206 1038 29L1136 38L1194 38Q1313 38 1513 5Q1726 552 1726 775Q1759 906 1792 1283L1358 1348Q1358 814 1243 472L1227 472Q1071 1232 1071 1414Q815 1299 678 1299Z"  horiz-adv-x="1865" vert-adv-y="2048"  />

      
      <glyph glyph-name="uni78" unicode="&#x78;" d="M883 1337Q692 919 670 919Q373 1273 358 1279L-2 1115Q0 1105 514 608L137-23Q586 20 629 34Q766 349 784 354Q971 85 1006 75L1440 206Q1333 323 956 689L1317 1361L883 1337Z"  horiz-adv-x="1509" vert-adv-y="2048"  />

      
      <glyph glyph-name="uni58" unicode="&#x58;" d="M883 1337Q692 919 670 919Q373 1273 358 1279L-2 1115Q0 1105 514 608L137-23Q586 20 629 34Q766 349 784 354Q971 85 1006 75L1440 206Q1333 323 956 689L1317 1361L883 1337Z"  horiz-adv-x="1509" vert-adv-y="2048"  />

      
      <glyph glyph-name="uni79" unicode="&#x79;" d="M573 847L556 849Q501 1111 405 1474Q390 1476-13 1361L382 464Q352 405 91 32L100 30L548-64Q859 339 913 655Q923 661 1138 1382Q745 1349 706 1339Q579 892 573 847Z"  horiz-adv-x="1179" vert-adv-y="2048"  />

      
      <glyph glyph-name="uni59" unicode="&#x59;" d="M573 847L556 849Q501 1111 405 1474Q390 1476-13 1361L382 464Q352 405 91 32L100 30L548-64Q859 339 913 655Q923 661 1138 1382Q745 1349 706 1339Q579 892 573 847Z"  horiz-adv-x="1179" vert-adv-y="2048"  />

      
      <glyph glyph-name="uni7a" unicode="&#x7a;" d="M529 1191Q390 1191 5 1224L5 1216Q30 825 38 774Q212 757 357 757L382 757Q480 757 669 782L669 774Q546 563 185 405Q111 364 111 356Q152 32 152 4L316 4Q851 4 1291 102L1291 110Q1232 481 1209 528Q1197 528 710 405L710 413Q710 419 1217 798Q1119 1196 1119 1232Q664 1191 529 1191Z"  horiz-adv-x="1339" vert-adv-y="2048"  />

      
      <glyph glyph-name="uni5a" unicode="&#x5a;" d="M529 1191Q390 1191 5 1224L5 1216Q30 825 38 774Q212 757 357 757L382 757Q480 757 669 782L669 774Q546 563 185 405Q111 364 111 356Q152 32 152 4L316 4Q851 4 1291 102L1291 110Q1232 481 1209 528Q1197 528 710 405L710 413Q710 419 1217 798Q1119 1196 1119 1232Q664 1191 529 1191Z"  horiz-adv-x="1339" vert-adv-y="2048"  />

      
      <glyph glyph-name="uni0430" unicode="&#x0430;" d="M135 1468Q-53 608 19 63L27 61Q162 63 385 27Q439 6 473 0Q434 281 432 416Q529 442 721 432Q738 356 785-72Q1282 76 1295 74Q1110 758 770 1452Q758 1454 688 1575Q260 1442 135 1468M391 1182L400 1180Q586 948 678 700L676 684Q486 696 391 651Q365 657 367 922Q365 1030 391 1182Z"  horiz-adv-x="1308" vert-adv-y="2048"  />

      
      <glyph glyph-name="uni0410" unicode="&#x0410;" d="M135 1468Q-53 608 19 63L27 61Q162 63 385 27Q439 6 473 0Q434 281 432 416Q529 442 721 432Q738 356 785-72Q1282 76 1295 74Q1110 758 770 1452Q758 1454 688 1575Q260 1442 135 1468M391 1182L400 1180Q586 948 678 700L676 684Q486 696 391 651Q365 657 367 922Q365 1030 391 1182Z"  horiz-adv-x="1308" vert-adv-y="2048"  />

      
      <glyph glyph-name="uni0431" unicode="&#x0431;" d="M773 1392Q861 1379 965 1341Q965 1339 967 1339Q955 1279 945 1207Q939 1169 943 1072Q941 1070 632 1095Q552 1097 457 1093Q449 1039 457 880Q574 892 668 880L683 878Q908 845 969 771Q1043 720 1070 595Q1088 503 1078 439L1078 429Q1062 317 965 202Q828 97 763 73Q517-56 89 1L15 11L11 15Q29 132 40 202L52 304Q97 624 113 1134Q111 1273 101 1392Q224 1416 335 1416Q560 1420 732 1398L773 1392M439 601Q429 527 431 290L433 290Q464 286 634 335Q756 382 765 450Q767 450 769 466L771 476Q781 544 746 568Q709 597 654 605L615 609Q507 626 439 601Z"  horiz-adv-x="1128" vert-adv-y="2048"  />

      
      <glyph glyph-name="uni0411" unicode="&#x0411;" d="M773 1392Q861 1379 965 1341Q965 1339 967 1339Q955 1279 945 1207Q939 1169 943 1072Q941 1070 632 1095Q552 1097 457 1093Q449 1039 457 880Q574 892 668 880L683 878Q908 845 969 771Q1043 720 1070 595Q1088 503 1078 439L1078 429Q1062 317 965 202Q828 97 763 73Q517-56 89 1L15 11L11 15Q29 132 40 202L52 304Q97 624 113 1134Q111 1273 101 1392Q224 1416 335 1416Q560 1420 732 1398L773 1392M439 601Q429 527 431 290L433 290Q464 286 634 335Q756 382 765 450Q767 450 769 466L771 476Q781 544 746 568Q709 597 654 605L615 609Q507 626 439 601Z"  horiz-adv-x="1128" vert-adv-y="2048"  />

      
      <glyph glyph-name="uni0432" unicode="&#x0432;" d="M-52 1495Q128 1132 104 0L186 0Q716-13 1068 290Q1179 438 1181 575L1181 616Q1187 876 1001 972Q976 972 976 989Q1068 1077 1072 1249Q1078 1484 851 1566Q765 1591 679 1593L605 1595Q382 1601-52 1495M648 1292Q730 1290 761 1230L761 1189Q757 1081 462 1009Q437 1081 425 1263Q526 1294 648 1292M669 798L710 798Q833 782 831 698L831 665Q827 526 505 434Q491 471 464 763Q538 802 669 798Z"  horiz-adv-x="1228" vert-adv-y="2048"  />

      
      <glyph glyph-name="uni0412" unicode="&#x0412;" d="M-52 1495Q128 1132 104 0L186 0Q716-13 1068 290Q1179 438 1181 575L1181 616Q1187 876 1001 972Q976 972 976 989Q1068 1077 1072 1249Q1078 1484 851 1566Q765 1591 679 1593L605 1595Q382 1601-52 1495M648 1292Q730 1290 761 1230L761 1189Q757 1081 462 1009Q437 1081 425 1263Q526 1294 648 1292M669 798L710 798Q833 782 831 698L831 665Q827 526 505 434Q491 471 464 763Q538 802 669 798Z"  horiz-adv-x="1228" vert-adv-y="2048"  />

      
      <glyph glyph-name="uni0433" unicode="&#x0433;" d="M537 45Q494 301 427 1003Q435 1003 435 1014Q613 1046 945 1016L949 1141Q968 1224 976 1462Q765 1478 486 1478Q85 1462 34 1462Q7 1462 7 1323L7 1245Q7 749 79-25L537 45Z"  horiz-adv-x="1011" vert-adv-y="2048"  />

      
      <glyph glyph-name="uni0413" unicode="&#x0413;" d="M537 45Q494 301 427 1003Q435 1003 435 1014Q613 1046 945 1016L949 1141Q968 1224 976 1462Q765 1478 486 1478Q85 1462 34 1462Q7 1462 7 1323L7 1245Q7 749 79-25L537 45Z"  horiz-adv-x="1011" vert-adv-y="2048"  />

      
      <glyph glyph-name="unib4" unicode="&#xb4;" d="M321 969Q315 954 110 670L118 668Q161 645 237 582Q524 797 542 840Q339 963 321 969Z"  horiz-adv-x="645" vert-adv-y="2048"  />

      
      <glyph glyph-name="uni0434" unicode="&#x0434;" d="M1297 614L1299 618Q1297 616 1297 614M515 28L517 66Q525 224 523 353Q537 648 644 984L660 983Q785 348 774 116Q1041 205 1156 206Q1171 529 877 1390L778 1387L713 1389Q584 1394 403 1432Q230 1165 85 121Q77 122 77 115Q93 106 515 28M22-31Q905-40 1201-5Q1256 9 1262 9L1233 281Q346 316 13 372L22-31Z"  horiz-adv-x="1288" vert-adv-y="2048"  />

      
      <glyph glyph-name="uni0414" unicode="&#x0414;" d="M1297 614L1299 618Q1297 616 1297 614M515 28L517 66Q525 224 523 353Q537 648 644 984L660 983Q785 348 774 116Q1041 205 1156 206Q1171 529 877 1390L778 1387L713 1389Q584 1394 403 1432Q230 1165 85 121Q77 122 77 115Q93 106 515 28M22-31Q905-40 1201-5Q1256 9 1262 9L1233 281Q346 316 13 372L22-31Z"  horiz-adv-x="1288" vert-adv-y="2048"  />

      
      <glyph glyph-name="uni0435" unicode="&#x0435;" d="M-40 1220Q54 860 114 514Q169 198 155-3Q804 18 1017 55Q992 198 925 487Q767 436 482 362L427 536L441 546L474 552Q574 569 712 626Q699 647 626 927Q562 890 400 837L388 854L384 884Q361 960 351 1021Q363 1032 382 1034L488 1052Q566 1067 789 1087L781 1128Q761 1247 734 1452L646 1437Q333 1384-40 1220Z"  horiz-adv-x="1052" vert-adv-y="2048"  />

      
      <glyph glyph-name="uni0415" unicode="&#x0415;" d="M-40 1220Q54 860 114 514Q169 198 155-3Q804 18 1017 55Q992 198 925 487Q767 436 482 362L427 536L441 546L474 552Q574 569 712 626Q699 647 626 927Q562 890 400 837L388 854L384 884Q361 960 351 1021Q363 1032 382 1034L488 1052Q566 1067 789 1087L781 1128Q761 1247 734 1452L646 1437Q333 1384-40 1220Z"  horiz-adv-x="1052" vert-adv-y="2048"  />

      
      <glyph glyph-name="uni0436" unicode="&#x0436;" d="M1324 1292Q1238 1179 1086 948L1072 937L1064 937Q1078 1146 1093 1269L634 1243Q640 980 646 856L673 372Q685 92 726-70L1039-25L1033 73Q1027 198 1025 417L1031 419Q1365 26 1383 28Q1824 202 1842 202Q1822 231 1236 645L1226 661Q1758 1245 1764 1261Q1734 1259 1324 1292M417 1245Q56 1212 30 1214Q34 1198 503 614L495 598Q-22 184-40 155Q-24 155 363-19Q380-21 675 372L681 370Q677 151 761 108L769 55L892 114Q978 45 990 325L1015 808Q1019 933 1025 1196L718 1196Q634 1099 646 890L638 890L626 901Q492 1132 417 1245Z"  horiz-adv-x="1818" vert-adv-y="2048"  />

      
      <glyph glyph-name="uni0416" unicode="&#x0416;" d="M1324 1292Q1238 1179 1086 948L1072 937L1064 937Q1078 1146 1093 1269L634 1243Q640 980 646 856L673 372Q685 92 726-70L1039-25L1033 73Q1027 198 1025 417L1031 419Q1365 26 1383 28Q1824 202 1842 202Q1822 231 1236 645L1226 661Q1758 1245 1764 1261Q1734 1259 1324 1292M417 1245Q56 1212 30 1214Q34 1198 503 614L495 598Q-22 184-40 155Q-24 155 363-19Q380-21 675 372L681 370Q677 151 761 108L769 55L892 114Q978 45 990 325L1015 808Q1019 933 1025 1196L718 1196Q634 1099 646 890L638 890L626 901Q492 1132 417 1245Z"  horiz-adv-x="1818" vert-adv-y="2048"  />

      
      <glyph glyph-name="uni0437" unicode="&#x0437;" d="M40 1383L30 1303Q22 1067 26 1039L61 1012Q364 1057 497 1057L554 1057Q634 1057 669 1000L669 975Q669 848 225 758Q278 695 208 563Q356 586 399 563Q468 557 514 492L514 443Q514 363 63 303Q73 25 22 8Q210-33 350-33L456-33Q868-33 933 195L954 258Q974 490 792 637Q1038 768 1038 877Q1062 885 1071 1057L1048 1153Q1021 1254 911 1313Q565 1489 112 1405L40 1383Z"  horiz-adv-x="1116" vert-adv-y="2048"  />

      
      <glyph glyph-name="uni0417" unicode="&#x0417;" d="M40 1383L30 1303Q22 1067 26 1039L61 1012Q364 1057 497 1057L554 1057Q634 1057 669 1000L669 975Q669 848 225 758Q278 695 208 563Q356 586 399 563Q468 557 514 492L514 443Q514 363 63 303Q73 25 22 8Q210-33 350-33L456-33Q868-33 933 195L954 258Q974 490 792 637Q1038 768 1038 877Q1062 885 1071 1057L1048 1153Q1021 1254 911 1313Q565 1489 112 1405L40 1383Z"  horiz-adv-x="1116" vert-adv-y="2048"  />

      
      <glyph glyph-name="uni0438" unicode="&#x0438;" d="M1150 1091Q1125 1119 746 1312L729 1312Q562 997 424 665L408 665Q424 857 473 1205L473 1214Q119 1246 52 1246Q18 1246 12 943L12 714Q12 356 28 50L440 9Q475 167 688 640L705 640L705 632Q705 525 622 83Q923 50 961 50Q1059 421 1150 1091Z"  horiz-adv-x="1163" vert-adv-y="2048"  />

      
      <glyph glyph-name="uni0418" unicode="&#x0418;" d="M1150 1091Q1125 1119 746 1312L729 1312Q562 997 424 665L408 665Q424 857 473 1205L473 1214Q119 1246 52 1246Q18 1246 12 943L12 714Q12 356 28 50L440 9Q475 167 688 640L705 640L705 632Q705 525 622 83Q923 50 961 50Q1059 421 1150 1091Z"  horiz-adv-x="1163" vert-adv-y="2048"  />

      
      <glyph glyph-name="uni0439" unicode="&#x0439;" d="M1183 1075Q1158 1104 769 1298L754 1298Q582 981 442 645L424 645Q442 839 491 1190L491 1198Q131 1231 61 1231Q26 1231 20 925L20 696Q20 334 37 26L458-15Q494 145 712 620L728 620L728 612Q728 506 643 59Q951 26 990 26Q1091 399 1183 1075M1008 1444Q935 1583 844 1583Q787 1583 550 1509Q507 1509 485 1575L379 1485Q458 1345 545 1345Q647 1362 829 1419Q872 1419 904 1362Q917 1362 1008 1444Z"  horiz-adv-x="1233" vert-adv-y="2048"  />

      
      <glyph glyph-name="uni0419" unicode="&#x0419;" d="M1183 1075Q1158 1104 769 1298L754 1298Q582 981 442 645L424 645Q442 839 491 1190L491 1198Q131 1231 61 1231Q26 1231 20 925L20 696Q20 334 37 26L458-15Q494 145 712 620L728 620L728 612Q728 506 643 59Q951 26 990 26Q1091 399 1183 1075M1008 1444Q935 1583 844 1583Q787 1583 550 1509Q507 1509 485 1575L379 1485Q458 1345 545 1345Q647 1362 829 1419Q872 1419 904 1362Q917 1362 1008 1444Z"  horiz-adv-x="1233" vert-adv-y="2048"  />

      
      <glyph glyph-name="uni0456" unicode="&#x0456;" d="M6 1274Q106 348 186 43Q211-12 211-18L541 51Q471 987 498 1343L6 1274Z"  horiz-adv-x="575" vert-adv-y="2048"  />

      
      <glyph glyph-name="uni0406" unicode="&#x0406;" d="M6 1274Q106 348 186 43Q211-12 211-18L541 51Q471 987 498 1343L6 1274Z"  horiz-adv-x="575" vert-adv-y="2048"  />

      
      <glyph glyph-name="uni0457" unicode="&#x0457;" d="M74 1277Q175 351 255 46Q279-9 279-15L609 54Q539 990 566 1346L74 1277M106 1489L102 1489L104 1489Q106 1489 113.50 1491Q121 1493 127 1495Q133 1497 135 1501L135 1501Q121 1493 106 1489M147 1729Q264 1729 282 1620L282 1610Q282 1544 205 1487Q168 1473 137 1473Q6 1493 6 1567L6 1595Q6 1667 94 1718Q143 1729 147 1729M444 1499L440 1499L442 1499Q444 1499 451.50 1501Q459 1503 465 1505Q471 1507 473 1511L473 1511Q459 1503 444 1499M485 1739Q602 1739 620 1630L620 1620Q620 1554 543 1497Q506 1483 475 1483Q344 1503 344 1577L344 1606Q344 1677 432 1729Q481 1739 485 1739Z"  horiz-adv-x="739" vert-adv-y="2048"  />

      
      <glyph glyph-name="uni0407" unicode="&#x0407;" d="M147 1274Q248 348 328 43Q352-12 352-18L682 51Q612 987 639 1343L147 1274M106 1489L102 1489L104 1489Q106 1489 113.50 1491Q121 1493 127 1495Q133 1497 135 1501L135 1501Q121 1493 106 1489M147 1729Q264 1729 282 1620L282 1610Q282 1544 205 1487Q168 1473 137 1473Q6 1493 6 1567L6 1595Q6 1667 94 1718Q143 1729 147 1729M444 1499L440 1499L442 1499Q444 1499 451.50 1501Q459 1503 465 1505Q471 1507 473 1511L473 1511Q459 1503 444 1499M485 1739Q602 1739 620 1630L620 1620Q620 1554 543 1497Q506 1483 475 1483Q344 1503 344 1577L344 1606Q344 1677 432 1729Q481 1739 485 1739Z"  horiz-adv-x="739" vert-adv-y="2048"  />

      
      <glyph glyph-name="uni043A" unicode="&#x043A;" d="M748 1358Q656 1245 496 1016L480 1006L472 1006Q486 1212 502 1335L13 1309Q19 1049 25 924L54 440Q68 162 111 0L445 45L439 143Q433 268 429 485L437 487Q793 96 812 98Q1281 272 1301 272Q1279 301 654 713L644 729Q1211 1311 1217 1327Q1184 1325 748 1358Z"  horiz-adv-x="1333" vert-adv-y="2048"  />

      
      <glyph glyph-name="uni041A" unicode="&#x041A;" d="M748 1358Q656 1245 496 1016L480 1006L472 1006Q486 1212 502 1335L13 1309Q19 1049 25 924L54 440Q68 162 111 0L445 45L439 143Q433 268 429 485L437 487Q793 96 812 98Q1281 272 1301 272Q1279 301 654 713L644 729Q1211 1311 1217 1327Q1184 1325 748 1358Z"  horiz-adv-x="1333" vert-adv-y="2048"  />

      
      <glyph glyph-name="uni043B" unicode="&#x043B;" d="M390-75L392-34Q401 138 401 278Q417 597 525 959L542 959Q663 269 648 17Q917 114 1031 114Q1069 420 761 1398L663 1396L597 1400Q468 1406 288 1447Q114 1160-40 30Q-48 30-48 22Q-32 13 390-75Z"  horiz-adv-x="1093" vert-adv-y="2048"  />

      
      <glyph glyph-name="uni041B" unicode="&#x041B;" d="M390-75L392-34Q401 138 401 278Q417 597 525 959L542 959Q663 269 648 17Q917 114 1031 114Q1069 420 761 1398L663 1396L597 1400Q468 1406 288 1447Q114 1160-40 30Q-48 30-48 22Q-32 13 390-75Z"  horiz-adv-x="1093" vert-adv-y="2048"  />

      
      <glyph glyph-name="uni043C" unicode="&#x043C;" d="M138 1071Q138 1069 140 1065Q138 1067 138 1071M330 1155Q330 1157 329 1158Q328 1159 328 1161L326 1163L330 1155M-2 1074Q31 199 80 33Q416 66 416 82Q383 519 383 599Q391 613 391 631L408 631Q547 220 596 1L604 1Q791 17 956 41Q973 457 973 492L989 500L997 500Q1176-4 1194-8Q1382 60 1554 173Q1489 603 1104 1237Q797 1213 678 1197Q686 1045 686 975L686 656L670 656Q670 709 432 1303Q-2 1096-2 1082L-2 1074Z"  horiz-adv-x="1589" vert-adv-y="2048"  />

      
      <glyph glyph-name="uni041C" unicode="&#x041C;" d="M138 1071Q138 1069 140 1065Q138 1067 138 1071M330 1155Q330 1157 329 1158Q328 1159 328 1161L326 1163L330 1155M-2 1074Q31 199 80 33Q416 66 416 82Q383 519 383 599Q391 613 391 631L408 631Q547 220 596 1L604 1Q791 17 956 41Q973 457 973 492L989 500L997 500Q1176-4 1194-8Q1382 60 1554 173Q1489 603 1104 1237Q797 1213 678 1197Q686 1045 686 975L686 656L670 656Q670 709 432 1303Q-2 1096-2 1082L-2 1074Z"  horiz-adv-x="1589" vert-adv-y="2048"  />

      
      <glyph glyph-name="uni043D" unicode="&#x043D;" d="M176 1398Q-21 521-21-3L339-20L339-11Q378 456 405 456L479 456Q585 456 626 439Q618 419 577-3L593 5Q819 13 946 13L1019 5Q1126 837 1159 1316L1150 1316Q1023 1316 749 1308Q692 875 692 824L684 824Q462 834 462 865L536 1332Q274 1398 176 1398Z"  horiz-adv-x="1179" vert-adv-y="2048"  />

      
      <glyph glyph-name="uni041D" unicode="&#x041D;" d="M173 1395Q-24 518-24-6L336-23L336-14Q375 453 402 453L476 453Q582 453 623 436Q615 416 574-6L590 2Q816 10 943 10L1016 2Q1123 834 1156 1313L1147 1313Q1020 1313 746 1305Q689 872 689 821L681 821Q459 831 459 862L533 1329Q271 1395 173 1395Z"  horiz-adv-x="1179" vert-adv-y="2048"  />

      
      <glyph glyph-name="uni043E" unicode="&#x043E;" d="M1 725Q1 360 361 92Q515-2 697-2L738-2Q1095-2 1295 369Q1336 483 1336 580L1336 614Q1336 999 992 1241Q837 1321 706 1321L632 1321Q286 1321 58 979Q1 840 1 725M599 936Q765 936 886 676L894 600Q894 442 665 399L648 399Q452 399 419 676L419 727Q443 936 599 936Z"  horiz-adv-x="1419" vert-adv-y="2048"  />

      
      <glyph glyph-name="uni041E" unicode="&#x041E;" d="M1 725Q1 360 361 92Q515-2 697-2L738-2Q1095-2 1295 369Q1336 483 1336 580L1336 614Q1336 999 992 1241Q837 1321 706 1321L632 1321Q286 1321 58 979Q1 840 1 725M599 936Q765 936 886 676L894 600Q894 442 665 399L648 399Q452 399 419 676L419 727Q443 936 599 936Z"  horiz-adv-x="1419" vert-adv-y="2048"  />

      
      <glyph glyph-name="uni043F" unicode="&#x043F;" d="M-19 1258Q10 961 20 785Q32 523 83 37L110-69Q153-51 263.50-24.50Q374 2 418-19.50Q462-41 462-20Q405 647 391 881L391 895L384 928Q489 940 661 932L821 922Q767 1151 767 1297Q573 1352-19 1258M1032 1336Q145 1305 315 1282Q331 1137 309 903L489 932Q597 938 696 942L702 928L704 914Q718 678 745 11Q927 19 1007 8Q1032-8 1068 0L1081 111Q1073 598 1052 881Q1032 1022 1032 1336Z"  horiz-adv-x="1132" vert-adv-y="2048"  />

      
      <glyph glyph-name="uni041F" unicode="&#x041F;" d="M-19 1258Q10 961 20 785Q32 523 83 37L110-69Q153-51 263.50-24.50Q374 2 418-19.50Q462-41 462-20Q405 647 391 881L391 895L384 928Q489 940 661 932L821 922Q767 1151 767 1297Q573 1352-19 1258M1032 1336Q145 1305 315 1282Q331 1137 309 903L489 932Q597 938 696 942L702 928L704 914Q718 678 745 11Q927 19 1007 8Q1032-8 1068 0L1081 111Q1073 598 1052 881Q1032 1022 1032 1336Z"  horiz-adv-x="1132" vert-adv-y="2048"  />

      
      <glyph glyph-name="uni0440" unicode="&#x0440;" d="M-12 1326Q54 646 54 351L54 187Q54 144 45 48Q332 23 488-9Q447 351 447 507Q463 515 471 515Q506 515 537 507Q969 507 1110 843Q1143 972 1143 1047Q1143 1381 693 1441Q693 1449 602 1449L520 1449Q236 1449-12 1326M512 1129Q725 1109 725 990L725 982Q725 822 488 785L455 785Q439 785 439 810Q439 884 414 1113Q428 1121 512 1129Z"  horiz-adv-x="1173" vert-adv-y="2048"  />

      
      <glyph glyph-name="uni0420" unicode="&#x0420;" d="M-12 1326Q54 646 54 351L54 187Q54 144 45 48Q332 23 488-9Q447 351 447 507Q463 515 471 515Q506 515 537 507Q969 507 1110 843Q1143 972 1143 1047Q1143 1381 693 1441Q693 1449 602 1449L520 1449Q236 1449-12 1326M512 1129Q725 1109 725 990L725 982Q725 822 488 785L455 785Q439 785 439 810Q439 884 414 1113Q428 1121 512 1129Z"  horiz-adv-x="1173" vert-adv-y="2048"  />

      
      <glyph glyph-name="uni0441" unicode="&#x0441;" d="M7 697Q61 265 431 56Q589-15 761 5L786 9Q902 22 960 54L945 110Q921 308 970 525L962 525L636 419Q474 400 384 529Q353 577 333 663Q300 947 544 1109Q575 1130 632 1138Q700 1144 781 1121L781 1130Q767 1240 908 1500Q732 1529 579 1510L562 1508Q81 1449 7 904Q-7 824 7 697Z"  horiz-adv-x="1009" vert-adv-y="2048"  />

      
      <glyph glyph-name="uni0421" unicode="&#x0421;" d="M7 697Q61 265 431 56Q589-15 761 5L786 9Q902 22 960 54L945 110Q921 308 970 525L962 525L636 419Q474 400 384 529Q353 577 333 663Q300 947 544 1109Q575 1130 632 1138Q700 1144 781 1121L781 1130Q767 1240 908 1500Q732 1529 579 1510L562 1508Q81 1449 7 904Q-7 824 7 697Z"  horiz-adv-x="1009" vert-adv-y="2048"  />

      
      <glyph glyph-name="uni0442" unicode="&#x0442;" d="M9 1076L9 969Q197 1018 337 1018Q394 650 394 76L394-38Q439-47 460-47Q771-30 771-6Q754 764 754 1035L754 1051L763 1067Q869 1051 1049 1051L1213 1051Q1172 1317 1156 1543Q978 1543 58 1436Q9 1309 9 1076Z"  horiz-adv-x="1268" vert-adv-y="2048"  />

      
      <glyph glyph-name="uni0422" unicode="&#x0422;" d="M9 1076L9 969Q197 1018 337 1018Q394 650 394 76L394-38Q439-47 460-47Q771-30 771-6Q754 764 754 1035L754 1051L763 1067Q869 1051 1049 1051L1213 1051Q1172 1317 1156 1543Q978 1543 58 1436Q9 1309 9 1076Z"  horiz-adv-x="1268" vert-adv-y="2048"  />

      
      <glyph glyph-name="uni0443" unicode="&#x0443;" d="M573 847L556 849Q501 1111 405 1474Q390 1476-13 1361L382 464Q352 405 91 32L100 30L548-64Q859 339 913 655Q923 661 1138 1382Q745 1349 706 1339Q579 892 573 847Z"  horiz-adv-x="1179" vert-adv-y="2048"  />

      
      <glyph glyph-name="uni0423" unicode="&#x0423;" d="M573 847L556 849Q501 1111 405 1474Q390 1476-13 1361L382 464Q352 405 91 32L100 30L548-64Q859 339 913 655Q923 661 1138 1382Q745 1349 706 1339Q579 892 573 847Z"  horiz-adv-x="1179" vert-adv-y="2048"  />

      
      <glyph glyph-name="uni0444" unicode="&#x0444;" d="M682 1186Q689 1321 715 1331L442 1356Q345 1375 207.50 1304Q70 1233 2 1056Q-43 890 1 715Q88 560 220.50 505.50Q353 451 383 439Q361 294 268-19Q501 21 707-9Q708 44 702 93L717 244Q742 534 682 1186M422 1030Q487 1016 498 1007Q467 819 448 748Q445 727 432 728L406 731Q222 783 238 921L239 928Q251 1031 422 1030M483 1343Q532 1017 526 402L514 194Q293 123 440 106Q501 9 634 18Q629 276 648 425Q662 431 669 430Q696 427 719 415Q1059 367 1213 672Q1255 792 1247 863Q1232 1185 960 1291Q961 1299 891 1309L826 1318Q602 1350 483 1343M842 992Q1013 950 999 850L998 843Q980 708 783 704L756 708Q743 710 745 730Q754 793 760 989Q772 995 842 992Z"  horiz-adv-x="1244" vert-adv-y="2048"  />

      
      <glyph glyph-name="uni0424" unicode="&#x0424;" d="M682 1186Q689 1321 715 1331L442 1356Q345 1375 207.50 1304Q70 1233 2 1056Q-43 890 1 715Q88 560 220.50 505.50Q353 451 383 439Q361 294 268-19Q501 21 707-9Q708 44 702 93L717 244Q742 534 682 1186M422 1030Q487 1016 498 1007Q467 819 448 748Q445 727 432 728L406 731Q222 783 238 921L239 928Q251 1031 422 1030M483 1343Q532 1017 526 402L514 194Q293 123 440 106Q501 9 634 18Q629 276 648 425Q662 431 669 430Q696 427 719 415Q1059 367 1213 672Q1255 792 1247 863Q1232 1185 960 1291Q961 1299 891 1309L826 1318Q602 1350 483 1343M842 992Q1013 950 999 850L998 843Q980 708 783 704L756 708Q743 710 745 730Q754 793 760 989Q772 995 842 992Z"  horiz-adv-x="1244" vert-adv-y="2048"  />

      
      <glyph glyph-name="uni0445" unicode="&#x0445;" d="M883 1337Q692 919 670 919Q373 1273 358 1279L-2 1115Q0 1105 514 608L137-23Q586 20 629 34Q766 349 784 354Q971 85 1006 75L1440 206Q1333 323 956 689L1317 1361L883 1337Z"  horiz-adv-x="1509" vert-adv-y="2048"  />

      
      <glyph glyph-name="uni0425" unicode="&#x0425;" d="M883 1337Q692 919 670 919Q373 1273 358 1279L-2 1115Q0 1105 514 608L137-23Q586 20 629 34Q766 349 784 354Q971 85 1006 75L1440 206Q1333 323 956 689L1317 1361L883 1337Z"  horiz-adv-x="1509" vert-adv-y="2048"  />

      
      <glyph glyph-name="uni0446" unicode="&#x0446;" d="M973 1322Q982 1322 982 1008L982 870Q982 746 970 246Q1066 225 1137 215L1137 213Q1115 109 1115-1L1115-49L1116-66L1113-68Q835 5 732 5L727 5Q727 13 544 14L539 14Q371 14 109-13Q97 24 54 278Q1 581-53 1191Q-53 1192-51 1192Q44 1177 115 1177Q182 1177 269 1198Q298 1121 345 891Q361 804 395 503L396 503L590 551Q541 970 493 1266Q583 1283 929 1320Q958 1322 973 1322Z"  horiz-adv-x="1134" vert-adv-y="2048"  />

      
      <glyph glyph-name="uni0426" unicode="&#x0426;" d="M973 1322Q982 1322 982 1008L982 870Q982 746 970 246Q1066 225 1137 215L1137 213Q1115 109 1115-1L1115-49L1116-66L1113-68Q835 5 732 5L727 5Q727 13 544 14L539 14Q371 14 109-13Q97 24 54 278Q1 581-53 1191Q-53 1192-51 1192Q44 1177 115 1177Q182 1177 269 1198Q298 1121 345 891Q361 804 395 503L396 503L590 551Q541 970 493 1266Q583 1283 929 1320Q958 1322 973 1322Z"  horiz-adv-x="1134" vert-adv-y="2048"  />

      
      <glyph glyph-name="uni0447" unicode="&#x0447;" d="M693 1387Q593 344 578 23L587-28Q757 8 937-49Q1066 912 1109 1348L693 1387M687 1389Q662 1039 650 867L632 793Q632 631 593 625Q496 660 427 719Q388 750 380 776Q453 1215 507 1405Q339 1462 279 1481L175 1518L163 1483Q7 780 64 549Q173 414 376 340Q898 203 818 510Q867 590 881 633Q988 963 1008 1370Q867 1366 687 1389Z"  horiz-adv-x="1132" vert-adv-y="2048"  />

      
      <glyph glyph-name="uni0427" unicode="&#x0427;" d="M693 1387Q593 344 578 23L587-28Q757 8 937-49Q1066 912 1109 1348L693 1387M687 1389Q662 1039 650 867L632 793Q632 631 593 625Q496 660 427 719Q388 750 380 776Q453 1215 507 1405Q339 1462 279 1481L175 1518L163 1483Q7 780 64 549Q173 414 376 340Q898 203 818 510Q867 590 881 633Q988 963 1008 1370Q867 1366 687 1389Z"  horiz-adv-x="1132" vert-adv-y="2048"  />

      
      <glyph glyph-name="uni0448" unicode="&#x0448;" d="M148-49Q548 21 927 41Q1275 62 1492 2Q1527 955 1506 1272Q1348 1264 1029 1221Q1070 981 1125 551L931 504L920 527L918 576Q908 725 859 936Q836 922 525 869Q560 768 603 523L582 506L550 506Q466 488 398 486Q388 506 388 533L378 693Q369 807 365 1137L320 1133Q191 1127-34 1127L-26 996Q3 527 148-49Z"  horiz-adv-x="1531" vert-adv-y="2048"  />

      
      <glyph glyph-name="uni0428" unicode="&#x0428;" d="M148-49Q548 21 927 41Q1275 62 1492 2Q1527 955 1506 1272Q1348 1264 1029 1221Q1070 981 1125 551L931 504L920 527L918 576Q908 725 859 936Q836 922 525 869Q560 768 603 523L582 506L550 506Q466 488 398 486Q388 506 388 533L378 693Q369 807 365 1137L320 1133Q191 1127-34 1127L-26 996Q3 527 148-49Z"  horiz-adv-x="1531" vert-adv-y="2048"  />

      
      <glyph glyph-name="uni0449" unicode="&#x0449;" d="M1516 1339Q1522 1339 1524 1090L1524 934Q1524 737 1512 287L1514 287Q1649 258 1676 258L1676 256Q1653 154 1653 18L1653-4L1655-20Q1653-20 1653-23Q1385 51 1268 51Q1268 57 1110 59Q803 59 316-14Q168-39 162-39Q64 369 21 723Q-2 885-8 1001L-18 1186Q-14 1186-14 1186Q287 1186 375 1198L379 1192L379 1186Q379 883 404 537Q404 537 412 516Q453 516 562 537L596 537L617 555Q582 778 541 913Q541 922 617 930Q783 963 871 985Q875 985 910 799Q932 633 932 559Q943 539 943 537L1139 586Q1086 1026 1043 1284Q1043 1286 1242 1311Q1467 1339 1516 1339Z"  horiz-adv-x="1685" vert-adv-y="2048"  />

      
      <glyph glyph-name="uni0429" unicode="&#x0429;" d="M1516 1339Q1522 1339 1524 1090L1524 934Q1524 737 1512 287L1514 287Q1649 258 1676 258L1676 256Q1653 154 1653 18L1653-4L1655-20Q1653-20 1653-23Q1385 51 1268 51Q1268 57 1110 59Q803 59 316-14Q168-39 162-39Q64 369 21 723Q-2 885-8 1001L-18 1186Q-14 1186-14 1186Q287 1186 375 1198L379 1192L379 1186Q379 883 404 537Q404 537 412 516Q453 516 562 537L596 537L617 555Q582 778 541 913Q541 922 617 930Q783 963 871 985Q875 985 910 799Q932 633 932 559Q943 539 943 537L1139 586Q1086 1026 1043 1284Q1043 1286 1242 1311Q1467 1339 1516 1339Z"  horiz-adv-x="1685" vert-adv-y="2048"  />

      
      <glyph glyph-name="uni044A" unicode="&#x044A;" d="M96 92Q310-20 549-8L619-4Q694-1 694 8Q1071 86 1059 416Q1056 492 1024 618Q893 944 529 926Q504 916 474 915Q467 915 453 922Q448 1077 469 1435Q342 1388 98 1359Q109 1264 111 1222L116 1059Q127 767 96 92M531 308Q460 313 448 321Q460 549 458 621Q457 645 470 646L498 648Q700 621 705 463L705 456Q709 337 531 308M-22 991Q325 1023 433 1131Q453 1148 456 1148L462 1425Q207 1347-11 1362Q9 1174-22 991Z"  horiz-adv-x="1103" vert-adv-y="2048"  />

      
      <glyph glyph-name="uni042A" unicode="&#x042A;" d="M96 92Q310-20 549-8L619-4Q694-1 694 8Q1071 86 1059 416Q1056 492 1024 618Q893 944 529 926Q504 916 474 915Q467 915 453 922Q448 1077 469 1435Q342 1388 98 1359Q109 1264 111 1222L116 1059Q127 767 96 92M531 308Q460 313 448 321Q460 549 458 621Q457 645 470 646L498 648Q700 621 705 463L705 456Q709 337 531 308M-22 991Q325 1023 433 1131Q453 1148 456 1148L462 1425Q207 1347-11 1362Q9 1174-22 991Z"  horiz-adv-x="1103" vert-adv-y="2048"  />

      
      <glyph glyph-name="uni044B" unicode="&#x044B;" d="M933 1259Q1023 378 1095 88Q1118 35 1118 28L1417 95Q1354 986 1378 1326L933 1259M24 87Q232-14 467-3L534 0Q609 4 608 11Q977 82 966 383Q963 451 931 565Q802 863 447 846Q422 838 393 836Q386 836 373 842Q367 983 388 1309Q261 1273 26 1239Q36 1154 38 1115L43 967Q54 701 24 87M448 284Q379 289 367 295Q379 503 376 569Q375 592 389 592L416 593Q613 569 619 426L620 419Q623 311 448 284Z"  horiz-adv-x="1458" vert-adv-y="2048"  />

      
      <glyph glyph-name="uni042B" unicode="&#x042B;" d="M933 1259Q1023 378 1095 88Q1118 35 1118 28L1417 95Q1354 986 1378 1326L933 1259M24 87Q232-14 467-3L534 0Q609 4 608 11Q977 82 966 383Q963 451 931 565Q802 863 447 846Q422 838 393 836Q386 836 373 842Q367 983 388 1309Q261 1273 26 1239Q36 1154 38 1115L43 967Q54 701 24 87M448 284Q379 289 367 295Q379 503 376 569Q375 592 389 592L416 593Q613 569 619 426L620 419Q623 311 448 284Z"  horiz-adv-x="1458" vert-adv-y="2048"  />

      
      <glyph glyph-name="uni044C" unicode="&#x044C;" d="M81 51Q302-36 538-2L606 8Q681 18 680 26Q1047 137 1005 456Q995 528 952 647Q792 951 433 899Q409 887 380 883Q373 882 358 888Q339 1037 327 1386Q202 1336-33 1278Q-14 1187-9 1146L12 989Q49 708 81 51M491 302Q421 299 408 306Q399 527 390 598Q387 621 400 623L427 627Q629 620 650 468L651 460Q666 347 491 302Z"  horiz-adv-x="1024" vert-adv-y="2048"  />

      
      <glyph glyph-name="uni042C" unicode="&#x042C;" d="M81 51Q302-36 538-2L606 8Q681 18 680 26Q1047 137 1005 456Q995 528 952 647Q792 951 433 899Q409 887 380 883Q373 882 358 888Q339 1037 327 1386Q202 1336-33 1278Q-14 1187-9 1146L12 989Q49 708 81 51M491 302Q421 299 408 306Q399 527 390 598Q387 621 400 623L427 627Q629 620 650 468L651 460Q666 347 491 302Z"  horiz-adv-x="1024" vert-adv-y="2048"  />

      
      <glyph glyph-name="uni044D" unicode="&#x044D;" d="M991 620Q1005 741 991 818Q915 1339 424 1396L405 1398Q250 1416 69 1388Q213 1139 199 1033L199 1026Q282 1047 352 1041Q409 1033 442 1013Q692 859 657 586Q637 504 606 459Q514 335 348 352L14 455L6 455Q57 247 31 56L16 4Q76-28 194-39L219-44Q395-63 557 6Q936 206 991 620M391 541Q522 582 893 609L854 794Q850 794 825 802Q692 826 319 813L391 541Z"  horiz-adv-x="1038" vert-adv-y="2048"  />

      
      <glyph glyph-name="uni042D" unicode="&#x042D;" d="M991 620Q1005 741 991 818Q915 1339 424 1396L405 1398Q250 1416 69 1388Q213 1139 199 1033L199 1026Q282 1047 352 1041Q409 1033 442 1013Q692 859 657 586Q637 504 606 459Q514 335 348 352L14 455L6 455Q57 247 31 56L16 4Q76-28 194-39L219-44Q395-63 557 6Q936 206 991 620M391 541Q522 582 893 609L854 794Q850 794 825 802Q692 826 319 813L391 541Z"  horiz-adv-x="1038" vert-adv-y="2048"  />

      
      <glyph glyph-name="uni044E" unicode="&#x044E;" d="M584 769Q543 365 828 34Q952-85 1111-102L1148-106Q1460-139 1678 252Q1726 376 1737 482L1741 521Q1785 948 1511 1248Q1384 1351 1269 1362L1205 1369Q901 1402 663 1045Q598 895 584 769M1132 930Q1278 915 1354 615L1352 531Q1334 356 1129 330L1114 332Q942 350 945 659L951 716Q996 945 1132 930M112 1435Q45 420 69 76Q85 12 83 6L425 16Q525 1037 616 1415L112 1435M210 479Q686 519 844 561Q873 575 876 575L844 781Q363 761 180 786L210 479Z"  horiz-adv-x="1797" vert-adv-y="2048"  />

      
      <glyph glyph-name="uni042E" unicode="&#x042E;" d="M584 769Q543 365 828 34Q952-85 1111-102L1148-106Q1460-139 1678 252Q1726 376 1737 482L1741 521Q1785 948 1511 1248Q1384 1351 1269 1362L1205 1369Q901 1402 663 1045Q598 895 584 769M1132 930Q1278 915 1354 615L1352 531Q1334 356 1129 330L1114 332Q942 350 945 659L951 716Q996 945 1132 930M112 1435Q45 420 69 76Q85 12 83 6L425 16Q525 1037 616 1415L112 1435M210 479Q686 519 844 561Q873 575 876 575L844 781Q363 761 180 786L210 479Z"  horiz-adv-x="1797" vert-adv-y="2048"  />

      
      <glyph glyph-name="uni044F" unicode="&#x044F;" d="M1150 1299Q878 1410 645 1410L550 1410Q442 1410 328 1378Q38 1281 38 1021Q38 756 227 609L227 594L173 507Q34 182 30 63L30 55Q313 16 448-24Q558 507 582 507L694 507L709 499Q701 313 668 0Q797 31 1094 55Q1086 125 1078 293Q1078 554 1150 1299M645 1101Q731 1093 740 1085Q714 768 694 768L668 768Q477 768 440 958L440 974Q466 1101 645 1101Z"  horiz-adv-x="1222" vert-adv-y="2048"  />

      
      <glyph glyph-name="uni042F" unicode="&#x042F;" d="M1150 1299Q878 1410 645 1410L550 1410Q442 1410 328 1378Q38 1281 38 1021Q38 756 227 609L227 594L173 507Q34 182 30 63L30 55Q313 16 448-24Q558 507 582 507L694 507L709 499Q701 313 668 0Q797 31 1094 55Q1086 125 1078 293Q1078 554 1150 1299M645 1101Q731 1093 740 1085Q714 768 694 768L668 768Q477 768 440 958L440 974Q466 1101 645 1101Z"  horiz-adv-x="1222" vert-adv-y="2048"  />

      

  </font>
</defs>
</svg>
