<svg height="511pt" viewBox="-5 1 511 511.9985" width="511pt" xmlns="http://www.w3.org/2000/svg"><path d="m275.085938 335.769531c0-9.964843-2.546876-19.171875-6.847657-26.589843-.023437-.058594-.042969-.117188-.066406-.175782l-17.09375-38.050781c-3.992187-8.886719-16.679687-8.910156-20.683594.003906l-17.09375 38.046875c-.023437.058594-.042969.117188-.066406.179688-4.300781 7.417968-6.847656 16.625-6.847656 26.585937 0 24.496094 15.40625 44.425781 34.351562 44.425781 18.941407 0 34.347657-19.929687 34.347657-44.425781zm-34.351563-51.234375 3.140625 6.988282c-1.964844-.226563-4.121094-.246094-6.277344 0zm.003906 80.660156c-10.492187 0-19.355469-13.476562-19.355469-29.425781 0-12.472656 7-29.398437 19.324219-29.425781h.027344c12.117187 0 19.351563 16.203125 19.351563 29.425781.003906 15.949219-8.859376 29.425781-19.347657 29.425781zm0 0"/><path d="m62.285156 309.003906-17.09375-38.050781c-4.007812-8.921875-16.679687-8.910156-20.683594.003906l-17.089843 38.046875c-.023438.058594-.042969.117188-.066407.171875-4.300781 7.421875-6.851562 16.628907-6.851562 26.59375 0 24.496094 15.410156 44.425781 34.351562 44.425781 18.941407 0 34.351563-19.929687 34.351563-44.425781 0-9.964843-2.550781-19.171875-6.847656-26.589843-.027344-.058594-.042969-.117188-.070313-.175782zm-27.433594-24.464844 3.140626 6.984376c-2.09375-.242188-4.285157-.230469-6.277344 0zm0 80.65625c-10.488281 0-19.351562-13.476562-19.351562-29.425781 0-12.589843 6.910156-29.425781 19.351562-29.425781 11.992188 0 19.351563 16.136719 19.351563 29.425781 0 15.949219-8.863281 29.425781-19.351563 29.425781zm0 0"/><path d="m101.917969 345.398438c18.941406 0 34.351562-19.929688 34.351562-44.425782 0-9.964844-2.546875-19.171875-6.847656-26.589844-.023437-.058593-.042969-.117187-.070313-.175781l-17.089843-38.050781c-4.011719-8.921875-16.683594-8.910156-20.683594 0l-17.09375 38.050781c-.027344.058594-.042969.117188-.070313.179688-4.296874 7.417969-6.847656 16.625-6.847656 26.585937 0 24.496094 15.410156 44.425782 34.351563 44.425782zm0-15c-10.488281 0-19.351563-13.476563-19.351563-29.425782 0-13.285156 7.417969-29.425781 19.351563-29.425781 12.273437 0 19.355469 16.511719 19.355469 29.425781 0 15.949219-8.863282 29.425782-19.355469 29.425782zm0-80.660157 3.140625 6.988281c-1.929688-.222656-4.179688-.242187-6.277344 0zm0 0"/><path d="m184.011719 236.15625c-4.011719-8.921875-16.679688-8.910156-20.683594 0l-17.09375 38.050781c-.023437.058594-.042969.117188-.070313.179688-4.296874 7.417969-6.847656 16.625-6.847656 26.585937 0 24.496094 15.410156 44.425782 34.351563 44.425782 18.945312 0 34.355469-19.929688 34.355469-44.425782 0-9.964844-2.550782-19.171875-6.851563-26.589844-.023437-.058593-.042969-.117187-.066406-.175781zm-10.34375 13.582031 3.140625 6.988281c-2.101563-.242187-4.375-.21875-6.277344 0zm0 80.660157c-10.488281 0-19.351563-13.476563-19.351563-29.425782 0-13 7.273438-29.425781 19.351563-29.425781 11.765625 0 19.355469 15.769531 19.355469 29.425781 0 15.949219-8.863282 29.425782-19.355469 29.425782zm0 0"/><path d="m501.429688 106.285156c0-9.960937-2.546876-19.167968-6.847657-26.585937-.023437-.058594-.042969-.117188-.070312-.175781l-17.089844-38.050782c-4.011719-8.925781-16.683594-8.914062-20.683594 0l-17.09375 38.050782c-.023437.054687-.042969.113281-.066406.171874-4.300781 7.417969-6.851563 16.625-6.851563 26.589844 0 24.496094 15.410157 44.425782 34.351563 44.425782s34.351563-19.929688 34.351563-44.425782zm-34.351563-51.230468 3.140625 6.984374c-2.132812-.242187-4.304688-.226562-6.277344 0zm0 80.65625c-10.488281 0-19.351563-13.472657-19.351563-29.425782 0-12.566406 6.84375-29.425781 19.351563-29.425781 11.421875 0 19.355469 15.152344 19.355469 29.425781 0 15.953125-8.863282 29.425782-19.355469 29.425782zm0 0"/><path d="m288.628906 79.523438-17.09375-38.050782c-3.996094-8.90625-16.6875-8.894531-20.683594 0-.226562.511719-16.941406 37.707032-17.15625 38.222656-4.300781 7.417969-6.851562 16.628907-6.851562 26.589844 0 24.5 15.410156 44.425782 34.351562 44.425782 18.941407 0 34.351563-19.925782 34.351563-44.425782 0-9.960937-2.550781-19.167968-6.847656-26.585937-.027344-.058594-.042969-.117188-.070313-.175781zm-27.433594-24.46875 3.136719 6.984374c-2.09375-.238281-4.285156-.226562-6.273437 0zm0 80.65625c-10.488281 0-19.355468-13.472657-19.355468-29.425782 0-16.441406 9.183594-29.425781 19.355468-29.425781 12.539063 0 19.351563 16.90625 19.351563 29.425781 0 15.953125-8.863281 29.425782-19.351563 29.425782zm0 0"/><path d="m328.261719 115.914062c18.941406 0 34.351562-19.929687 34.351562-44.425781 0-9.960937-2.550781-19.171875-6.847656-26.589843-.023437-.058594-.042969-.117188-.070313-.171876l-17.089843-38.050781c-4-8.90625-16.691407-8.894531-20.6875 0l-17.089844 38.050781c-.023437.054688-.042969.113282-.066406.171876-4.300781 7.417968-6.851563 16.628906-6.851563 26.589843 0 24.496094 15.410156 44.425781 34.351563 44.425781zm0-15c-10.488281 0-19.351563-13.472656-19.351563-29.425781 0-12.902343 7.21875-29.425781 19.351563-29.425781 12.480469 0 19.351562 16.808594 19.351562 29.425781 0 15.953125-8.863281 29.425781-19.351562 29.425781zm0-80.65625 3.136719 6.984376c-2.117188-.242188-4.277344-.226563-6.273438 0zm0 0"/><path d="m410.355469 6.675781c-4-8.90625-16.691407-8.894531-20.6875 0l-17.089844 38.050781c-.023437.054688-.042969.113282-.066406.171876-4.300781 7.417968-6.851563 16.628906-6.851563 26.589843 0 24.5 15.410156 44.425781 34.351563 44.425781 18.941406 0 34.351562-19.925781 34.351562-44.425781 0-9.960937-2.550781-19.167969-6.847656-26.585937-.023437-.058594-.042969-.117188-.070313-.175782zm-10.34375 13.582031 3.140625 6.984376c-2.011719-.230469-4.191406-.238282-6.277344 0zm0 80.65625c-10.488281 0-19.351563-13.472656-19.351563-29.425781 0-15.984375 8.90625-29.425781 19.351563-29.425781 10.628906 0 19.351562 13.726562 19.351562 29.425781 0 15.953125-8.859375 29.425781-19.351562 29.425781zm0 0"/><path d="m160.207031 491.394531c-.863281-.320312-1.730469-.617187-2.605469-.902343-3.941406-1.273438-8.167968.886718-9.441406 4.828124-1.277344 3.941407.882813 8.167969 4.824219 9.445313.671875.214844 1.339844.445313 2.003906.691406 33.183594 12.316407 64.417969 6.992188 81.515625-13.894531 35.152344-42.964844-10.015625-119.953125-75.539062-137.546875-13.914063-4.535156-32.5-4.535156-46.417969 0-38.359375 10.300781-71.976563 41.550781-83.6875 77.824219-14.808594 45.863281 12.914063 80.160156 55.460937 80.160156 18.105469 0 32.222657-5.957031 36.269532-7.257812 3.945312-1.265626 6.113281-5.488282 4.847656-9.433594-1.269531-3.945313-5.492188-6.113282-9.433594-4.847656-.902344.292968-1.800781.601562-2.695312.933593-26.582032 9.867188-51.976563 6.207031-64.6875-9.332031-9.347656-11.425781-11.296875-27.625-5.488282-45.613281 10.070313-31.191407 40.289063-59.152344 73.488282-67.996094.140625-.039063.28125-.078125.421875-.125 11.019531-3.640625 26.414062-3.640625 37.433593 0 .140626.046875.28125.089844.421876.125 56.242187 14.984375 95.117187 80.464844 68 113.609375-12.71875 15.535156-38.109376 19.199219-64.691407 9.332031zm0 0"/><path d="m346.871094 275.976562c11.109375-4.125 23.347656-4.125 34.460937 0 49.125 18.234376 85.703125-3.386718 92.5625-37.386718.816407-4.058594-1.808593-8.015625-5.871093-8.832032-4.070313-.824218-8.015626 1.808594-8.832032 5.871094-6.289062 31.214844-40.910156 38.0625-72.640625 26.285156-14.480469-5.375-30.425781-5.375-44.902343 0-48.0625 17.835938-84.964844-9.144531-70.175782-54.945312 13.402344-41.511719 64.617188-80.515625 111.765625-67.996094 32.476563 8.652344 61.710938 35.046875 72.742188 65.679688 1.40625 3.898437 5.703125 5.917968 9.597656 4.515625 3.898437-1.402344 5.917969-5.699219 4.515625-9.597657-18.875-52.40625-82.183594-90.355468-129.203125-75.035156-38.359375 10.300782-71.980469 41.554688-83.6875 77.824219-18.207031 56.378906 27.917969 96.535156 89.667969 73.617187zm0 0"/></svg>