<svg width="25" height="17" viewBox="0 0 25 17" fill="none" xmlns="http://www.w3.org/2000/svg">
<path d="M23.3696 3.26087H22.2826C22.0913 3.26087 21.9098 3.3 21.7391 3.36087V1.63043C21.7391 0.731522 21.0076 0 20.1087 0H19.0217C18.1228 0 17.3913 0.731522 17.3913 1.63043V5.43478H7.6087V1.63043C7.6087 0.731522 6.87717 0 5.97826 0H4.8913C3.99239 0 3.26087 0.731522 3.26087 1.63043V3.36087C3.09022 3.3 2.9087 3.26087 2.71739 3.26087H1.63043C0.731522 3.26087 0 3.99239 0 4.8913V11.413C0 12.312 0.731522 13.0435 1.63043 13.0435H2.71739C2.9087 13.0435 3.09022 13.0043 3.26087 12.9435V14.6739C3.26087 15.5728 3.99239 16.3043 4.8913 16.3043H5.97826C6.87717 16.3043 7.6087 15.5728 7.6087 14.6739V10.8696H17.3913V14.6739C17.3913 15.5728 18.1228 16.3043 19.0217 16.3043H20.1087C21.0076 16.3043 21.7391 15.5728 21.7391 14.6739V12.9435C21.9098 13.0043 22.0913 13.0435 22.2826 13.0435H23.3696C24.2685 13.0435 25 12.312 25 11.413V4.8913C25 3.99239 24.2685 3.26087 23.3696 3.26087ZM3.26087 11.413C3.26087 11.7125 3.01685 11.9565 2.71739 11.9565H1.63043C1.33098 11.9565 1.08696 11.7125 1.08696 11.413V4.8913C1.08696 4.59185 1.33098 4.34783 1.63043 4.34783H2.71739C3.01685 4.34783 3.26087 4.59185 3.26087 4.8913V11.413ZM6.52174 14.6739C6.52174 14.9734 6.27772 15.2174 5.97826 15.2174H4.8913C4.59185 15.2174 4.34783 14.9734 4.34783 14.6739V11.413V4.8913V1.63043C4.34783 1.33098 4.59185 1.08696 4.8913 1.08696H5.97826C6.27772 1.08696 6.52174 1.33098 6.52174 1.63043V14.6739ZM17.3913 9.78261H7.6087V6.52174H17.3913V9.78261ZM20.6522 4.8913V11.413V14.6739C20.6522 14.9734 20.4082 15.2174 20.1087 15.2174H19.0217C18.7223 15.2174 18.4783 14.9734 18.4783 14.6739V1.63043C18.4783 1.33098 18.7223 1.08696 19.0217 1.08696H20.1087C20.4082 1.08696 20.6522 1.33098 20.6522 1.63043V4.8913ZM23.913 11.413C23.913 11.7125 23.669 11.9565 23.3696 11.9565H22.2826C21.9832 11.9565 21.7391 11.7125 21.7391 11.413V4.8913C21.7391 4.59185 21.9832 4.34783 22.2826 4.34783H23.3696C23.669 4.34783 23.913 4.59185 23.913 4.8913V11.413Z" fill="black"/>
</svg>
