<svg width="25" height="25" viewBox="0 0 25 25" fill="none" xmlns="http://www.w3.org/2000/svg">
<g clip-path="url(#clip0)">
<path d="M24.6549 0.348828C24.1969 -0.109766 23.4538 -0.109766 22.9958 0.348828L0.351611 22.993C-0.106787 23.4512 -0.106787 24.1938 0.351611 24.652C0.580713 24.8813 0.881103 24.9959 1.1813 24.9959C1.48149 24.9959 1.78188 24.8813 2.01079 24.652L24.6549 2.00781C25.1133 1.54961 25.1133 0.807031 24.6549 0.348828Z" fill="black"/>
<path d="M5.57344 0.0126953C2.50039 0.0126953 0 2.51328 0 5.58633C0 8.65938 2.50039 11.1598 5.57344 11.1598C8.64668 11.1598 11.1469 8.65918 11.1469 5.58613C11.1469 2.51309 8.64648 0.0126953 5.57344 0.0126953ZM5.57344 8.81289C3.79414 8.81289 2.34668 7.36523 2.34668 5.58613C2.34668 3.80703 3.79434 2.35938 5.57344 2.35938C7.35273 2.35938 8.80019 3.80703 8.80019 5.58613C8.80019 7.36523 7.35273 8.81289 5.57344 8.81289Z" fill="black"/>
<path d="M19.4265 13.8472C16.3534 13.8472 13.853 16.3476 13.853 19.4206C13.853 22.4937 16.3534 24.994 19.4265 24.994C22.4995 24.994 24.9999 22.4938 24.9999 19.4206C24.9999 16.3474 22.4995 13.8472 19.4265 13.8472ZM19.4265 22.6472C17.6472 22.6472 16.1997 21.1995 16.1997 19.4204C16.1997 17.6413 17.6474 16.1937 19.4265 16.1937C21.2056 16.1937 22.6532 17.6413 22.6532 19.4204C22.6532 21.1995 21.2058 22.6472 19.4265 22.6472Z" fill="black"/>
</g>
<defs>
<clipPath id="clip0">
<rect width="25" height="25" fill="white"/>
</clipPath>
</defs>
</svg>
