<?xml version="1.0" encoding="iso-8859-1"?>
<!-- Generator: Adobe Illustrator 19.1.0, SVG Export Plug-In . SVG Version: 6.00 Build 0)  -->
<svg version="1.1" id="Capa_1" fill="#03a9f4"  xmlns="http://www.w3.org/2000/svg" xmlns:xlink="http://www.w3.org/1999/xlink" x="0px" y="0px"
	 viewBox="0 0 333.488 333.488" style="enable-background:new 0 0 333.488 333.488;" xml:space="preserve">
<g>
	<path d="M315.66,134.408h-48.619C263.134,68.79,220.209,18.236,167.033,18.236c-0.006,0-0.006,0-0.006,0
		c-26.498,0-51.479,12.777-70.348,35.984c-2.237,2.751-1.819,6.8,0.938,9.043c2.751,2.243,6.806,1.812,9.036-0.938
		c16.382-20.142,37.828-31.234,60.387-31.234h0.006c45.296,0,83.292,45.791,87.135,103.318h-47.79
		c-11.697,0-17.815,8.091-17.815,16.08c0,2.911,0.816,7.359,4.698,11.999l52.077,62.225c3.985,4.749,9.705,7.481,15.688,7.481
		c5.996,0,11.71-2.731,15.694-7.494l52.051-62.205c3.888-4.647,4.704-9.094,4.704-12.005
		C333.482,142.499,327.357,134.408,315.66,134.408z M318.932,154.241l-52.051,62.218c-3.072,3.657-8.612,3.644-11.69,0
		l-52.064-62.225c-1.491-1.761-1.71-3.098-1.71-3.747c0-2.012,1.851-3.226,4.962-3.226h54.609c0.045,0,0.084,0,0.129,0.006
		c0.013,0,0.019-0.006,0.026-0.006h54.525c3.111,0,4.968,1.208,4.968,3.226C320.641,151.13,320.416,152.467,318.932,154.241z
		 M226.829,271.151c-16.382,20.142-37.828,31.241-60.387,31.241c-45.296,0-83.292-45.791-87.135-103.318l47.79,0.006
		c11.697,0,17.822-8.098,17.822-16.074c0-2.911-0.823-7.359-4.704-11.999l-52.07-62.231c-3.991-4.756-9.711-7.481-15.694-7.481
		c-5.983,0-11.71,2.725-15.694,7.487L4.704,170.996C0.816,175.642,0,180.083,0,182.988c0,7.995,6.125,16.08,17.822,16.08
		l48.613,0.006c3.901,65.618,46.826,116.178,100.008,116.178c26.504,0,51.492-12.777,70.355-36.003
		c2.237-2.744,1.819-6.793-0.938-9.036C233.114,267.989,229.072,268.401,226.829,271.151z M17.815,186.214
		c-3.111,0-4.968-1.208-4.968-3.226c0-0.643,0.225-1.979,1.716-3.734l52.051-62.225c1.536-1.825,3.663-2.879,5.842-2.879
		s4.312,1.054,5.836,2.873l52.064,62.225c1.491,1.761,1.716,3.104,1.716,3.753c0,2.012-1.857,3.226-4.968,3.226l-54.699-0.006
		c-0.013,0-0.019-0.006-0.032-0.006c-0.006,0-0.019,0.006-0.026,0.006L17.815,186.214z"/>
</g>
<g>
</g>
<g>
</g>
<g>
</g>
<g>
</g>
<g>
</g>
<g>
</g>
<g>
</g>
<g>
</g>
<g>
</g>
<g>
</g>
<g>
</g>
<g>
</g>
<g>
</g>
<g>
</g>
<g>
</g>
</svg>
