<svg width="45" height="50" viewBox="0 0 45 50" fill="none" xmlns="http://www.w3.org/2000/svg">
<path d="M32.0613 9.84447C29.0037 7.16928 24.6849 0.519913 24.6415 0.452904C24.4968 0.23156 24.2704 0.0765274 24.0117 0.0217199C23.753 -0.0330874 23.4831 0.0167926 23.2611 0.160449C23.0391 0.304105 22.883 0.529843 22.827 0.788281C22.771 1.04672 22.8196 1.31682 22.9622 1.53949C23.145 1.82216 27.4761 8.49028 30.744 11.3496C31.4822 11.9956 31.8612 12.5746 31.7843 12.9385C31.7248 13.2205 31.2831 13.971 28.4736 14.8476C27.6025 15.1145 26.8551 15.6832 26.3658 16.4517C25.8764 17.2201 25.6771 18.1379 25.8037 19.0401C25.8652 19.4743 25.9591 19.9034 26.0845 20.3236C24.5319 20.7541 21.5115 21.6008 18.7142 22.4402C16.5367 23.0935 16.4646 24.3515 16.5348 24.8621C16.8137 26.8934 20.6367 28.326 26.0477 28.4266C26.1695 28.4285 26.2897 28.4555 26.4007 28.5059C26.5117 28.5562 26.6111 28.6289 26.6928 28.7194C26.7761 28.8098 26.8399 28.9164 26.8802 29.0326C26.9206 29.1487 26.9367 29.2719 26.9274 29.3945C26.8907 29.8976 26.8676 30.4059 26.8449 30.9098C26.7172 33.7452 26.5327 35.5069 25.0509 36.0626C16.5998 39.2315 8.77165 36.3765 1.7834 27.5765C1.61845 27.3688 1.37775 27.2351 1.11423 27.2048C0.850704 27.1746 0.585954 27.2502 0.378224 27.4152C0.17049 27.5801 0.0367889 27.8208 0.00653172 28.0843C-0.0237255 28.3479 0.0519386 28.6126 0.216881 28.8203C3.17982 32.5513 7.25454 36.3913 12.3562 38.2151C11.3369 40.439 9.21189 45.9619 11.3436 49.5146C11.4112 49.627 11.5002 49.7253 11.6057 49.8034C11.7112 49.8818 11.8311 49.9383 11.9585 49.9703C12.0859 50.0019 12.2184 50.0084 12.3483 49.9892C12.4781 49.9697 12.6029 49.925 12.7156 49.8575C12.8281 49.7901 12.9263 49.7007 13.0045 49.5954C13.0827 49.4897 13.1393 49.3699 13.1712 49.2427C13.203 49.1152 13.2095 48.9826 13.1901 48.8527C13.1708 48.7228 13.1261 48.5982 13.0585 48.4855C11.491 45.8729 13.2047 41.0663 14.2892 38.7945C15.687 39.1336 17.1202 39.3049 18.5585 39.3049C21.0198 39.2862 23.4573 38.8223 25.7533 37.9355C28.5783 36.8763 28.7189 33.7541 28.8431 30.9997C28.865 30.5145 28.8869 30.0242 28.9222 29.5393C28.9509 29.1463 28.8991 28.7516 28.7702 28.3792C28.6413 28.0068 28.4379 27.6646 28.1724 27.3734C27.907 27.0822 27.585 26.848 27.2261 26.6853C26.8672 26.5226 26.479 26.4346 26.085 26.4268C21.2807 26.3375 19.0243 25.1882 18.5799 24.6671C18.7986 24.527 19.0378 24.4221 19.2889 24.356C23.2308 23.1734 27.6214 21.9747 27.6653 21.9628C27.8075 21.9235 27.9393 21.8534 28.0513 21.7574C28.1633 21.6613 28.2527 21.5418 28.3132 21.4072C28.3736 21.2726 28.4036 21.1264 28.4011 20.9789C28.3986 20.8314 28.3635 20.6863 28.2984 20.5539C28.0432 19.9844 27.8703 19.3815 27.7847 18.7633C27.7298 18.3314 27.8283 17.8939 28.0631 17.5272C28.2979 17.1605 28.6541 16.888 29.0694 16.7571C31.0396 16.1422 33.351 15.1995 33.7413 13.352C33.9824 12.2111 33.4173 11.0309 32.0613 9.84447Z" fill="black"/>
<path d="M35.1245 18.8919C34.9242 18.7197 34.6635 18.6338 34.4002 18.653C34.1366 18.6722 33.8913 18.7949 33.7179 18.9944C33.5448 19.1938 33.4572 19.4537 33.475 19.7173C33.4927 19.981 33.6137 20.2269 33.8123 20.4014C33.8345 20.421 36.0453 22.3918 36.1335 25.1085C36.1891 26.8189 35.3914 28.5122 33.7626 30.1413C33.6694 30.2342 33.5957 30.3446 33.5451 30.4659C33.4948 30.5872 33.4688 30.7174 33.4688 30.8488C33.4685 30.9802 33.4945 31.1104 33.5448 31.2317C33.5948 31.3533 33.6688 31.4636 33.7617 31.5565C33.8546 31.6494 33.9649 31.7231 34.0863 31.7734C34.2076 31.8237 34.3378 31.8495 34.4691 31.8495C34.6008 31.8492 34.7307 31.8234 34.8523 31.7728C34.9736 31.7225 35.0837 31.6486 35.1766 31.5557C37.2194 29.5129 38.2138 27.3143 38.1319 25.0208C38.0037 21.4273 35.242 18.9937 35.1245 18.8919Z" fill="black"/>
<path d="M39.5249 15.3252C39.3246 15.1517 39.0636 15.0648 38.7991 15.0836C38.5349 15.1024 38.2887 15.2254 38.115 15.4255C37.9413 15.6256 37.8541 15.8865 37.8727 16.1508C37.891 16.4152 38.0138 16.6614 38.2135 16.8354C38.252 16.869 42.0701 20.2564 42.2302 24.9872C42.3311 27.9744 40.9626 30.9086 38.163 33.7085C38.0698 33.8011 37.9961 33.9115 37.9455 34.0328C37.8952 34.1541 37.8691 34.2843 37.8691 34.4157C37.8691 34.5471 37.8949 34.6773 37.9452 34.7989C37.9955 34.9202 38.0692 35.0305 38.1621 35.1234C38.255 35.2164 38.3653 35.29 38.4866 35.3403C38.608 35.3906 38.7381 35.4164 38.8698 35.4164C39.0012 35.4164 39.1311 35.3903 39.2527 35.3397C39.374 35.2894 39.4841 35.2158 39.577 35.1226C42.7909 31.909 44.3558 28.4691 44.2283 24.8988C44.0282 19.2905 39.7086 15.4843 39.5249 15.3252Z" fill="black"/>
<path d="M11.6725 10.3902C12.3748 10.6191 13.1088 10.7355 13.8474 10.7352C17.0042 10.7352 19.3821 8.64657 19.5025 8.5386C19.7664 8.30166 19.9257 7.9698 19.9454 7.61571C19.9651 7.2616 19.8437 6.91412 19.6078 6.64936C19.3718 6.38458 19.0406 6.22409 18.6865 6.20305C18.3325 6.18199 17.9846 6.30211 17.7189 6.53707C17.6934 6.55932 15.1977 8.714 12.4998 7.8402C12.3323 7.78579 12.1558 7.76493 11.9802 7.77875C11.8047 7.79259 11.6336 7.84085 11.4768 7.92083C11.3199 8.00081 11.1803 8.1109 11.066 8.24482C10.9517 8.37877 10.8649 8.5339 10.8106 8.70137C10.7562 8.86887 10.7354 9.04542 10.7493 9.22094C10.7632 9.39646 10.8116 9.56754 10.8916 9.72438C10.9717 9.8812 11.0818 10.0207 11.2158 10.135C11.3498 10.2492 11.505 10.336 11.6725 10.3902Z" fill="black"/>
</svg>
