<svg width="150" height="212" viewBox="0 0 150 212" fill="none" xmlns="http://www.w3.org/2000/svg">
<g clip-path="url(#clip0)">
<path d="M108.358 33.2852C98.0244 24.2438 83.4279 1.77083 83.2813 1.54436C82.7923 0.796279 82.027 0.272313 81.1527 0.0870792C80.2784 -0.0981542 79.3663 0.0704262 78.6159 0.555944C77.8656 1.04146 77.3381 1.80439 77.1488 2.67784C76.9595 3.55129 77.1239 4.46414 77.6059 5.21672C78.2236 6.17207 92.8614 28.7084 103.906 38.3722C106.401 40.5555 107.682 42.5121 107.422 43.7421C107.221 44.6952 105.728 47.2316 96.2326 50.1942C93.2886 51.0963 90.7628 53.0185 89.1089 55.6157C87.455 58.2128 86.7814 61.3146 87.2092 64.3638C87.4171 65.8314 87.7344 67.2814 88.1584 68.7017C82.9108 70.1567 72.7028 73.0183 63.2488 75.8551C55.8895 78.0633 55.6458 82.3147 55.8828 84.0404C56.8255 90.9059 69.7461 95.7474 88.0338 96.0875C88.4456 96.0939 88.8518 96.1851 89.2269 96.3554C89.602 96.5256 89.938 96.7713 90.2141 97.0771C90.4955 97.3828 90.7112 97.743 90.8476 98.1355C90.984 98.528 91.0383 98.9443 91.007 99.3586C90.8829 101.059 90.8049 102.777 90.7283 104.48C90.2967 114.063 89.6729 120.017 84.665 121.895C56.1026 132.605 29.6457 122.956 6.02738 93.2145C5.46992 92.5124 4.65639 92.0605 3.76577 91.9583C2.87514 91.856 1.98036 92.1117 1.27829 92.6692C0.576207 93.2266 0.124336 94.0402 0.0220754 94.9308C-0.0801854 95.8214 0.175538 96.7162 0.732998 97.4183C10.7469 110.028 24.5183 123.006 41.7605 129.17C38.3154 136.686 31.1336 155.352 38.3381 167.359C38.5665 167.739 38.8675 168.071 39.2241 168.335C39.5807 168.6 39.9859 168.791 40.4165 168.899C40.847 169.006 41.2946 169.028 41.7336 168.963C42.1726 168.897 42.5944 168.746 42.975 168.518C43.3555 168.29 43.6874 167.988 43.9516 167.632C44.2158 167.275 44.4072 166.87 44.5149 166.44C44.6225 166.009 44.6443 165.561 44.5789 165.122C44.5136 164.683 44.3625 164.262 44.1341 163.881C38.8364 155.051 44.628 138.806 48.2934 131.128C53.0176 132.274 57.8614 132.853 62.7226 132.853C71.0409 132.79 79.2791 131.222 87.0388 128.225C96.5865 124.645 97.0619 114.093 97.4816 104.784C97.5557 103.144 97.6295 101.487 97.749 99.8483C97.8457 98.52 97.6708 97.1859 97.2352 95.9274C96.7995 94.6688 96.1121 93.5122 95.2149 92.5279C94.3177 91.5437 93.2295 90.7524 92.0165 90.2024C90.8036 89.6524 89.4914 89.3551 88.1598 89.3287C71.9228 89.027 64.2966 85.1428 62.7948 83.3814C63.5339 82.9081 64.3424 82.5533 65.1911 82.3299C78.5137 78.3331 93.3525 74.282 93.501 74.2416C93.9816 74.109 94.427 73.8719 94.8055 73.5474C95.1839 73.2228 95.4861 72.8187 95.6905 72.364C95.8948 71.9092 95.9963 71.4149 95.9877 70.9165C95.9791 70.418 95.8606 69.9275 95.6406 69.4801C94.7781 67.5552 94.1936 65.5176 93.9044 63.4283C93.7188 61.9685 94.0518 60.4899 94.8454 59.2506C95.639 58.0113 96.8426 57.0902 98.2462 56.648C104.905 54.5697 112.717 51.3837 114.036 45.1395C114.851 41.2836 112.941 37.2949 108.358 33.2852Z" fill="black"/>
<path d="M118.71 63.8632C118.033 63.2812 117.152 62.9909 116.262 63.0558C115.371 63.1207 114.542 63.5354 113.956 64.2094C113.371 64.8833 113.075 65.7618 113.135 66.6528C113.195 67.5438 113.604 68.375 114.275 68.9648C114.35 69.0309 121.822 75.6918 122.12 84.8734C122.308 90.6542 119.612 96.3771 114.107 101.883C113.792 102.197 113.543 102.57 113.372 102.98C113.202 103.39 113.114 103.83 113.114 104.274C113.113 104.718 113.201 105.158 113.371 105.568C113.54 105.979 113.79 106.352 114.104 106.666C114.418 106.98 114.791 107.229 115.201 107.399C115.611 107.569 116.051 107.656 116.495 107.656C116.94 107.655 117.379 107.568 117.79 107.397C118.2 107.227 118.572 106.977 118.886 106.663C125.79 99.7592 129.151 92.3284 128.874 84.577C128.441 72.432 119.107 64.2072 118.71 63.8632Z" fill="black"/>
<path d="M133.582 51.8085C132.905 51.2221 132.023 50.9284 131.129 50.9919C130.236 51.0555 129.404 51.4711 128.817 52.1474C128.23 52.8237 127.935 53.7054 127.998 54.5989C128.06 55.4924 128.475 56.3246 129.15 56.9126C129.28 57.0262 142.184 68.4747 142.725 84.4634C143.066 94.5592 138.441 104.476 128.979 113.939C128.664 114.252 128.415 114.625 128.244 115.035C128.074 115.445 127.986 115.885 127.986 116.329C127.986 116.773 128.073 117.213 128.243 117.624C128.413 118.034 128.662 118.407 128.976 118.721C129.29 119.035 129.663 119.284 130.073 119.454C130.483 119.624 130.923 119.711 131.368 119.711C131.812 119.711 132.251 119.623 132.662 119.452C133.072 119.282 133.444 119.033 133.758 118.718C144.62 107.857 149.909 96.2313 149.478 84.1645C148.802 65.2102 134.203 52.3463 133.582 51.8085Z" fill="black"/>
<path d="M39.4486 35.129C41.8222 35.9024 44.3031 36.2959 46.7994 36.2948C57.4684 36.2948 65.5049 29.2359 65.912 28.871C66.8039 28.0702 67.3421 26.9486 67.4088 25.7519C67.4754 24.5551 67.0651 23.3807 66.2677 22.4859C65.4703 21.591 64.3507 21.0486 63.1542 20.9775C61.9577 20.9063 60.7818 21.3123 59.884 22.1064C59.7977 22.1816 51.363 29.4638 42.2447 26.5106C41.6787 26.3267 41.0821 26.2562 40.4888 26.3029C39.8956 26.3497 39.3173 26.5128 38.7872 26.7831C38.257 27.0534 37.7853 27.4255 37.3989 27.8781C37.0126 28.3308 36.7192 28.8551 36.5356 29.4211C36.3519 29.9872 36.2816 30.5839 36.3286 31.1771C36.3756 31.7703 36.5391 32.3485 36.8096 32.8786C37.0801 33.4086 37.4524 33.8802 37.9052 34.2663C38.358 34.6524 38.8825 34.9456 39.4486 35.129H39.4486Z" fill="black"/>
</g>
<defs>
<clipPath id="clip0">
<rect width="149.503" height="211.251" fill="white"/>
</clipPath>
</defs>
</svg>
