<svg width="25" height="25" viewBox="0 0 25 25" fill="none" xmlns="http://www.w3.org/2000/svg">
<path d="M12.5 25C5.60722 25 0 19.3928 0 12.5C0 5.60722 5.60722 0 12.5 0C19.3928 0 25 5.60722 25 12.5C25 19.3928 19.3928 25 12.5 25ZM12.5 1.5625C6.46877 1.5625 1.5625 6.46877 1.5625 12.5C1.5625 18.5312 6.46877 23.4375 12.5 23.4375C18.5312 23.4375 23.4375 18.5312 23.4375 12.5C23.4375 6.46877 18.5312 1.5625 12.5 1.5625Z" fill="black"/>
<path d="M11.328 16.6665C11.128 16.6665 10.9281 16.5906 10.7759 16.4374L7.3905 13.0521C7.08533 12.7467 7.08533 12.2519 7.3905 11.9468C7.69568 11.6416 8.19044 11.6416 8.49581 11.9468L11.329 14.7801L17.5479 8.5614C17.8531 8.25623 18.3478 8.25623 18.653 8.5614C18.9582 8.86658 18.9582 9.36134 18.653 9.66652L11.8821 16.4374C11.728 16.5906 11.5281 16.6665 11.328 16.6665Z" fill="black"/>
</svg>
