<svg width="25" height="25" viewBox="0 0 25 25" fill="none" xmlns="http://www.w3.org/2000/svg">
<path d="M12.5 25C5.60722 25 0 19.3928 0 12.5C0 5.60722 5.60722 0 12.5 0C19.3928 0 25 5.60722 25 12.5C25 19.3928 19.3928 25 12.5 25ZM12.5 1.5625C6.46877 1.5625 1.5625 6.46877 1.5625 12.5C1.5625 18.5312 6.46877 23.4375 12.5 23.4375C18.5312 23.4375 23.4375 18.5312 23.4375 12.5C23.4375 6.46877 18.5312 1.5625 12.5 1.5625Z" fill="black"/>
<path d="M8.6336 17.1477C8.43352 17.1477 8.23344 17.0717 8.08142 16.9186C7.77625 16.6134 7.77625 16.1186 8.08142 15.8135L15.8157 8.07898C16.1211 7.7738 16.6159 7.7738 16.921 8.07898C17.2262 8.38416 17.2262 8.87892 16.921 9.18429L9.18654 16.9186C9.03242 17.0717 8.83253 17.1477 8.6336 17.1477V17.1477Z" fill="black"/>
<path d="M16.3664 17.1476C16.1665 17.1476 15.9664 17.0717 15.8144 16.9186L8.0801 9.18522C7.77473 8.88004 7.77473 8.38527 8.0801 8.0801C8.38527 7.77473 8.88004 7.77473 9.18522 8.0801L16.9195 15.8144C17.2249 16.1196 17.2249 16.6143 16.9195 16.9195C16.7665 17.0717 16.5665 17.1476 16.3664 17.1476V17.1476Z" fill="black"/>
</svg>
